
<svg width="899" height="875" fill="none" xmlns="http://www.w3.org/2000/svg"><mask id="a" fill="#fff"><path fill-rule="evenodd" clip-rule="evenodd" d="M0 437.5V875h899V0H0v437.5zM677.287 55.938c0 .417 2.05 2.736 4.556 5.154 2.506 2.418 4.556 4.636 4.556 4.927 0 .292 2.05 2.509 4.555 4.927 2.506 2.418 4.556 4.635 4.556 4.927 0 .291 2.05 2.508 4.556 4.927 2.506 2.418 4.556 4.635 4.556 4.926 0 .292 2.05 2.51 4.555 4.927 2.506 2.418 4.556 4.635 4.556 4.927 0 .292 2.05 2.509 4.556 4.927 2.506 2.418 4.556 4.638 4.556 4.935 0 .297 1.366 1.845 3.037 3.44l3.037 2.902v654.368l-5.062 4.893c-2.784 2.691-5.062 5.124-5.062 5.408 0 .284-6.378 6.718-14.173 14.299-7.796 7.58-14.174 14.008-14.174 14.284 0 .276-4.668 5.046-10.374 10.599L669.7 825.732H229.206l-1.419-1.478c-.78-.813-1.691-1.478-2.025-1.478-.333 0-1.244-.665-2.024-1.478s-1.692-1.478-2.025-1.478c-.334 0-1.245-.665-2.025-1.478-.78-.813-1.691-1.478-2.025-1.478-.333 0-1.244-.665-2.024-1.478-.781-.813-1.692-1.478-2.025-1.478-.334 0-1.245-.665-2.025-1.478-.78-.813-1.687-1.478-2.015-1.478-.327 0-1.471-.887-2.541-1.971-1.07-1.084-2.213-1.971-2.541-1.971-.328 0-1.234-.665-2.015-1.478-.78-.813-1.691-1.478-2.024-1.478-.334 0-1.245-.665-2.025-1.478-.78-.813-1.691-1.478-2.025-1.478-.333 0-1.245-.665-2.025-1.478-.78-.813-1.691-1.478-2.024-1.478-.334 0-1.245-.665-2.025-1.478-.78-.813-1.691-1.478-2.025-1.478-.334 0-1.245-.665-2.025-1.478-.78-.813-1.691-1.478-2.024-1.478-.334 0-1.245-.665-2.025-1.478-.78-.813-1.691-1.478-2.025-1.478-.334 0-1.245-.665-2.025-1.478-.78-.813-1.691-1.478-2.025-1.478-.333 0-1.244-.666-2.024-1.478-.78-.813-1.692-1.478-2.025-1.478-.334 0-1.245-.666-2.025-1.479-.78-.812-1.691-1.478-2.025-1.478-.333 0-1.244-.665-2.024-1.478-.781-.813-1.686-1.478-2.012-1.478-.325 0-.917-.316-1.315-.704-.625-.608-.723-46.036-.723-335.774V105.9l2.265-2.204c1.245-1.212 2.507-2.204 2.805-2.204.298 0 2.344-1.773 4.548-3.941 2.203-2.168 4.254-3.942 4.558-3.942.304 0 2.125-1.552 4.047-3.448 1.922-1.897 3.743-3.45 4.047-3.45.304 0 2.355-1.773 4.558-3.94 2.204-2.168 4.254-3.942 4.556-3.942.302 0 2.352-1.774 4.556-3.942 2.203-2.167 4.254-3.941 4.558-3.941.304 0 2.125-1.552 4.047-3.449 1.922-1.897 3.743-3.449 4.047-3.449.304 0 2.355-1.773 4.558-3.941 2.204-2.168 4.358-3.941 4.787-3.941.43 0 .781-.222.781-.493 0-.328 76.436-.493 228.294-.493 205.123 0 228.293.077 228.293.758zM231.331 93.609c-1.532 1.594-3.079 2.91-3.439 2.927-.36.016-2.457 1.803-4.661 3.971-2.203 2.168-4.253 3.941-4.555 3.941-.303 0-2.353 1.774-4.556 3.942-2.204 2.167-4.255 3.941-4.558 3.941-.305 0-2.125 1.552-4.047 3.449-1.922 1.897-3.744 3.449-4.048 3.449-.305 0-1.113.544-1.796 1.209l-1.243 1.209v318.329c0 275.229.098 318.424.723 319.033.398.387.99.704 1.315.704.326 0 1.231.665 2.011 1.478.781.813 1.692 1.478 2.025 1.478.334 0 1.245.665 2.025 1.478.78.813 1.691 1.478 2.025 1.478.333 0 1.245.665 2.025 1.478.78.813 1.691 1.478 2.024 1.478.334 0 1.245.665 2.025 1.478.78.813 1.687 1.478 2.015 1.478.327 0 1.471.887 2.541 1.971 1.07 1.084 2.254 1.971 2.633 1.971.378 0 1.015.443 1.416.985.402.542 1.044.985 1.428.985.383 0 1.336.665 2.116 1.478s1.686 1.478 2.014 1.478c.328 0 1.471.887 2.542 1.971 1.07 1.084 2.213 1.971 2.541 1.971.328 0 1.234.665 2.014 1.478.78.813 1.691 1.478 2.025 1.478.334 0 1.245.665 2.025 1.478l1.418 1.478h413.169l4.295-4.181c2.363-2.299 4.296-4.408 4.296-4.686 0-.279 6.606-6.93 14.679-14.782l14.68-14.275V125.569l-2.531-2.399c-1.392-1.32-2.531-2.644-2.531-2.943 0-.299-2.05-2.522-4.556-4.94-2.505-2.418-4.555-4.634-4.555-4.925 0-.291-2.278-2.73-5.062-5.421-2.784-2.691-5.062-5.125-5.062-5.41 0-.284-1.933-2.398-4.296-4.697l-4.295-4.18-212.735.029-212.735.03-2.784 2.896zm255.627 46.805c0 16.529.13 30.053.289 30.053.595 0 1.736-1.435 1.736-2.182 0-1.155 2.649-.997 3.543.212.402.542 1.085.985 1.519.985.434 0 1.117.443 1.519.985.401.542 1.084.986 1.518.986.434 0 1.117.443 1.519.985.401.542 1.085.985 1.518.985.434 0 1.118.444 1.519.986.401.542 1.085.985 1.519.985.433 0 1.117.444 1.518.986.402.541 1.085.985 1.519.985.434 0 1.117.443 1.518.985.402.542 1.085.986 1.519.986.434 0 1.117.443 1.518.985.402.542 1.135.985 1.631.985.495 0 .9.222.9.493s.406.493.901.493 1.229.443 1.63.985c.402.542 1.085.985 1.519.985.434 0 1.117.444 1.519.986.401.542 1.084.985 1.518.985.434 0 1.117.444 1.519.985.401.542 1.135.986 1.63.986.495 0 .901.222.901.493 0 .27.405.492.9.492.496 0 1.229.444 1.631.986.401.542 1.134.985 1.63.985.495 0 .901.222.901.493s.405.492.9.492c.496 0 1.229.444 1.631.986.401.542 1.084.985 1.518.985.434 0 1.117.443 1.519.985.401.542 1.135.986 1.63.986.495 0 .901.221.901.492s.405.493.9.493c.496 0 1.229.443 1.631.985.401.542 1.135.986 1.63.986.495 0 .901.222.901.492 0 .271.405.493.9.493.496 0 1.229.444 1.631.986.401.541 1.134.985 1.63.985.495 0 .901.222.901.493s.405.492.9.492c.496 0 1.229.444 1.631.986.401.542 1.134.985 1.63.985.495 0 .901.222.901.493s.405.492.9.492c.496 0 1.229.444 1.63.986.402.542 1.135.985 1.631.985.495 0 .9.222.9.493s.456.492 1.013.492c.557 0 1.012.222 1.012.493s.406.493.901.493 1.229.443 1.63.985c.402.542 1.135.985 1.631.985.495 0 .9.222.9.493s.456.493 1.013.493c.556 0 1.012.222 1.012.493 0 .27.456.492 1.012.492.557 0 1.013.222 1.013.493s.455.493 1.012.493c.557 0 1.012.221 1.012.492s.406.493.901.493c.496 0 1.229.443 1.63.985.402.542 1.135.986 1.631.986.495 0 .9.221.9.492s.456.493 1.013.493c.557 0 1.012.222 1.012.493s.456.492 1.013.492c.556 0 1.012.222 1.012.493s.456.493 1.012.493c.557 0 1.013.221 1.013.492s.455.493 1.012.493c.557 0 1.013.222 1.013.493s.455.492 1.012.492c.557 0 1.012.222 1.012.493s.456.493 1.013.493c.557 0 1.012.222 1.012.492 0 .271.456.493 1.012.493.557 0 1.013.222 1.013.493s.683.493 1.518.493c.836 0 1.519.221 1.519.492s.456.493 1.012.493c.557 0 1.013.222 1.013.493s.683.492 1.518.492c.836 0 1.519.222 1.519.493s.456.493 1.012.493c.557 0 1.013.221 1.013.492s.683.493 1.518.493c.836 0 1.519.222 1.519.493s.911.492 2.025.492c1.113 0 2.024.222 2.024.493 0 .301 2.363.493 6.075.493s6.074.191 6.074.492c0 .313 3.881.493 10.63.493 6.749 0 10.63-.18 10.63-.493 0-.29 1.784-.492 4.339-.492 5.296 0 5.785.35 5.785 4.152 0 1.51.228 2.745.506 2.745.289 0 .506 1.478.506 3.449 0 1.971.218 3.449.507 3.449.281 0 .506 1.314.506 2.956s.225 2.956.506 2.956c.289 0 .506 1.478.506 3.449 0 1.97.217 3.448.506 3.448.282 0 .507 1.314.507 2.957 0 1.642.224 2.956.506 2.956.278 0 .506.443.506.985 0 .821-.338.985-2.025.985-1.113 0-2.025.222-2.025.493 0 .309-3.205.493-8.605.493-5.399 0-8.605.183-8.605.492 0 .293-1.856.493-4.556.493-2.699 0-4.556-.2-4.556-.493 0-.31-3.374-.492-9.111-.492s-9.112-.183-9.112-.493c0-.287-1.687-.493-4.049-.493-2.363 0-4.05-.205-4.05-.492 0-.271-.911-.493-2.024-.493-1.114 0-2.025-.222-2.025-.493s-.911-.492-2.025-.492c-1.114 0-2.025-.222-2.025-.493s-.683-.493-1.518-.493c-.836 0-1.519-.221-1.519-.492s-.455-.493-1.012-.493c-.557 0-1.013-.222-1.013-.493s-.683-.492-1.518-.492-1.519-.222-1.519-.493-.455-.493-1.012-.493c-.557 0-1.013-.222-1.013-.493s-.683-.492-1.518-.492-1.519-.222-1.519-.493-.455-.493-1.012-.493c-.557 0-1.013-.221-1.013-.492s-.455-.493-1.012-.493c-.557 0-1.012-.222-1.012-.493s-.456-.492-1.013-.492c-.557 0-1.012-.222-1.012-.493s-.456-.493-1.013-.493c-.556 0-1.012-.221-1.012-.492s-.455-.493-1.012-.493c-.557 0-1.013-.222-1.013-.493s-.455-.492-1.012-.492c-.557 0-1.012-.222-1.012-.493s-.456-.493-1.013-.493c-.557 0-1.012-.221-1.012-.492s-.456-.493-1.013-.493c-.556 0-1.012-.222-1.012-.493s-.456-.492-1.012-.492c-.557 0-1.013-.222-1.013-.493s-.455-.493-1.012-.493c-.557 0-1.013-.222-1.013-.493 0-.27-.455-.492-1.012-.492-.557 0-1.012-.222-1.012-.493s-.456-.493-1.013-.493c-.557 0-1.012-.221-1.012-.492s-.406-.493-.901-.493-1.229-.443-1.63-.985c-.401-.542-1.135-.986-1.63-.986-.496 0-.901-.221-.901-.492s-.456-.493-1.012-.493c-.557 0-1.013-.222-1.013-.493s-.455-.492-1.012-.492c-.557 0-1.013-.222-1.013-.493s-.405-.493-.9-.493c-.496 0-1.229-.443-1.631-.985-.401-.542-1.134-.985-1.63-.985-.495 0-.901-.222-.901-.493s-.455-.493-1.012-.493c-.557 0-1.012-.221-1.012-.492s-.406-.493-.901-.493-1.229-.444-1.63-.986c-.402-.541-1.135-.985-1.631-.985-.495 0-.9-.222-.9-.493s-.406-.492-.901-.492-1.229-.444-1.63-.986c-.402-.542-1.135-.985-1.631-.985-.495 0-.9-.222-.9-.493s-.406-.492-.901-.492-1.229-.444-1.63-.986c-.402-.542-1.135-.985-1.631-.985-.495 0-.9-.222-.9-.493s-.406-.492-.901-.492-1.229-.444-1.63-.986c-.401-.542-1.085-.985-1.519-.985-.433 0-1.117-.444-1.518-.985-.402-.542-1.135-.986-1.631-.986-.495 0-.9-.222-.9-.493 0-.27-.406-.492-.901-.492s-1.229-.444-1.63-.986c-.402-.542-1.135-.985-1.631-.985-.495 0-.9-.222-.9-.493s-.406-.492-.901-.492-1.229-.444-1.63-.986c-.402-.542-1.085-.985-1.519-.985-.433 0-1.117-.443-1.518-.985-.402-.542-1.135-.986-1.631-.986-.495 0-.9-.221-.9-.492s-.406-.493-.901-.493-1.229-.443-1.63-.985c-.402-.542-1.085-.986-1.519-.986-.434 0-1.117-.443-1.518-.985-.402-.542-1.085-.986-1.519-.986-.434 0-1.117-.443-1.519-.985-.401-.542-1.084-.985-1.518-.985-.434 0-1.117-.444-1.519-.986-.401-.542-1.135-.985-1.63-.985-.855 0-.901 1.755-.901 34.488 0 22.663.174 34.487.507 34.487.278 0 .506-.394.506-.876 0-.483.455-1.196 1.012-1.587.557-.391 1.012-1.01 1.012-1.376 0-1.006 1.311-2.073 2.545-2.073.605 0 1.737.665 2.517 1.478.78.813 1.733 1.478 2.116 1.478.384 0 1.026.444 1.428.986.401.541 1.085.985 1.518.985.434 0 1.118.443 1.519.985.401.542 1.044.986 1.427.986.384 0 1.336.665 2.116 1.478s1.733 1.478 2.116 1.478c.384 0 1.026.443 1.428.985.401.542 1.084.985 1.518.985.434 0 1.117.444 1.519.986.401.542 1.085.985 1.518.985.434 0 1.118.444 1.519.986.401.541 1.085.985 1.519.985.433 0 1.117.443 1.518.985.402.542 1.044.986 1.428.986.383 0 1.335.665 2.116 1.478.78.813 1.732 1.478 2.115 1.478.384 0 1.026.443 1.428.985.401.542 1.085.985 1.518.985.434 0 1.118.444 1.519.986.401.542 1.135.985 1.63.985.496 0 .901.222.901.493s.405.492.901.492c.495 0 1.229.444 1.63.986.401.542 1.085.985 1.519.985.433 0 1.117.444 1.518.986.402.542 1.085.985 1.519.985.434 0 1.117.443 1.518.985.402.542 1.135.986 1.631.986.495 0 .9.221.9.492s.406.493.901.493 1.229.443 1.63.985c.402.542 1.085.986 1.519.986.434 0 1.117.443 1.518.985.402.542 1.085.985 1.519.985.434 0 1.117.444 1.519.986.401.542 1.134.985 1.63.985.495 0 .901.222.901.493s.405.493.9.493c.496 0 1.229.443 1.63.985.402.542 1.135.985 1.631.985.495 0 .9.222.9.493s.406.493.901.493c.496 0 1.229.443 1.63.985.402.542 1.135.985 1.631.985.495 0 .9.222.9.493s.456.493 1.013.493c.557 0 1.012.221 1.012.492s.406.493.901.493 1.229.443 1.63.985c.402.542 1.135.986 1.631.986.495 0 .9.221.9.492s.456.493 1.012.493c.557 0 1.013.222 1.013.493s.405.492.9.492c.496 0 1.229.444 1.631.986.401.542 1.135.985 1.63.985.495 0 .901.222.901.493s.455.493 1.012.493c.557 0 1.013.221 1.013.492s.455.493 1.012.493c.557 0 1.012.222 1.012.493s.456.492 1.013.492c.557 0 1.012.222 1.012.493s.456.493 1.013.493c.556 0 1.012.221 1.012.492s.455.493 1.012.493c.557 0 1.013.222 1.013.493s.455.492 1.012.492c.557 0 1.012.222 1.012.493s.684.493 1.519.493c.835 0 1.519.221 1.519.492s.455.493 1.012.493c.557 0 1.012.222 1.012.493s.684.492 1.519.492c.835 0 1.519.222 1.519.493s.683.493 1.518.493 1.519.222 1.519.492c0 .274 1.35.493 3.037.493 1.687 0 3.037.219 3.037.493 0 .32 6.581.493 18.729.493 12.149 0 18.729-.173 18.729-.493 0-.271.456-.493 1.013-.493.877 0 1.012.329 1.012 2.464 0 1.354.228 2.463.506 2.463.282 0 .507 1.314.507 2.956s.224 2.956.506 2.956c.281 0 .506 1.314.506 2.956s.225 2.956.506 2.956c.289 0 .506 1.478.506 3.449 0 1.971.217 3.449.507 3.449.281 0 .506 1.314.506 2.956s.224 2.956.506 2.956c.281 0 .506 1.314.506 2.956v2.956h-3.543c-2.025 0-3.544.212-3.544.493 0 .32-6.58.493-18.729.493-12.148 0-18.729-.173-18.729-.493 0-.296-2.025-.493-5.062-.493-3.037 0-5.062-.197-5.062-.493 0-.271-1.139-.492-2.531-.492-1.392 0-2.531-.222-2.531-.493s-.683-.493-1.518-.493c-.836 0-1.519-.221-1.519-.492s-.683-.493-1.519-.493c-.835 0-1.518-.222-1.518-.493s-.683-.492-1.519-.492c-.835 0-1.518-.222-1.518-.493s-.456-.493-1.013-.493c-.556 0-1.012-.221-1.012-.492s-.683-.493-1.519-.493c-.835 0-1.518-.222-1.518-.493s-.456-.492-1.013-.492c-.556 0-1.012-.222-1.012-.493s-.456-.493-1.012-.493c-.557 0-1.013-.221-1.013-.492s-.455-.493-1.012-.493c-.557 0-1.013-.222-1.013-.493s-.455-.492-1.012-.492c-.557 0-1.012-.222-1.012-.493s-.456-.493-1.013-.493c-.556 0-1.012-.222-1.012-.493 0-.27-.456-.492-1.012-.492-.557 0-1.013-.222-1.013-.493s-.455-.493-1.012-.493c-.557 0-1.013-.221-1.013-.492s-.455-.493-1.012-.493c-.557 0-1.012-.222-1.012-.493s-.456-.492-1.013-.492c-.557 0-1.012-.222-1.012-.493s-.456-.493-1.013-.493c-.556 0-1.012-.221-1.012-.492s-.405-.493-.9-.493c-.496 0-1.229-.443-1.631-.985-.401-.542-1.135-.986-1.63-.986-.495 0-.901-.221-.901-.492s-.455-.493-1.012-.493c-.557 0-1.013-.222-1.013-.493s-.405-.492-.9-.492c-.496 0-1.229-.444-1.631-.986-.401-.542-1.134-.985-1.63-.985-.495 0-.901-.222-.901-.493s-.405-.493-.9-.493c-.496 0-1.229-.443-1.631-.985-.401-.542-1.134-.985-1.63-.985-.495 0-.901-.222-.901-.493s-.455-.493-1.012-.493c-.557 0-1.012-.221-1.012-.492s-.406-.493-.901-.493-1.229-.443-1.63-.985c-.402-.542-1.085-.986-1.519-.986-.434 0-1.117-.443-1.518-.985-.402-.542-1.135-.985-1.631-.985-.495 0-.9-.222-.9-.493s-.406-.493-.901-.493c-.496 0-1.229-.443-1.63-.985-.402-.542-1.085-.985-1.519-.985-.434 0-1.117-.444-1.519-.986-.401-.542-1.084-.985-1.518-.985-.434 0-1.117-.444-1.519-.986-.401-.541-1.135-.985-1.63-.985-.495 0-.901-.222-.901-.493s-.405-.492-.9-.492c-.496 0-1.229-.444-1.631-.986-.401-.542-1.084-.985-1.518-.985-.434 0-1.117-.443-1.519-.985-.401-.542-1.085-.986-1.518-.986-.434 0-1.118-.443-1.519-.985-.401-.542-1.085-.985-1.519-.985-.433 0-1.117-.444-1.518-.986-.402-.542-1.085-.985-1.519-.985-.433 0-1.117-.444-1.518-.986-.402-.541-1.085-.985-1.519-.985-.434 0-1.117-.443-1.518-.985-.402-.542-1.085-.986-1.519-.986-.434 0-1.117-.443-1.519-.985-.401-.542-1.084-.985-1.518-.985-.434 0-1.117-.444-1.519-.986-.401-.542-1.085-.985-1.518-.985-.434 0-1.118-.443-1.519-.985-.401-.542-1.085-.986-1.519-.986-.433 0-1.117-.443-1.518-.985s-.907-.985-1.124-.985c-.217 0-.395 16.406-.395 36.458s.13 36.458.289 36.458c.595 0 1.736-1.435 1.736-2.182 0-1.155 2.649-.997 3.543.211.402.542 1.085.986 1.519.986.434 0 1.117.443 1.519.985.401.542 1.084.986 1.518.986.434 0 1.117.443 1.519.985.401.542 1.085.985 1.518.985.434 0 1.118.444 1.519.986.401.542 1.085.985 1.519.985.433 0 1.117.443 1.518.985.402.542 1.085.986 1.519.986.434 0 1.117.443 1.518.985.402.542 1.085.985 1.519.985.434 0 1.117.444 1.518.986.402.542 1.135.985 1.631.985.495 0 .9.222.9.493s.406.493.901.493 1.229.443 1.63.985c.402.542 1.085.985 1.519.985.434 0 1.117.444 1.519.986.401.542 1.084.985 1.518.985.434 0 1.117.443 1.519.985.401.542 1.135.986 1.63.986.495 0 .901.221.901.492s.405.493.9.493c.496 0 1.229.443 1.631.985.401.542 1.134.986 1.63.986.495 0 .901.221.901.492s.405.493.9.493c.496 0 1.229.444 1.631.985.401.542 1.084.986 1.518.986.434 0 1.117.443 1.519.985.401.542 1.135.986 1.63.986.495 0 .901.221.901.492s.405.493.9.493c.496 0 1.229.443 1.631.985.401.542 1.135.986 1.63.986.495 0 .901.221.901.492s.405.493.9.493c.496 0 1.229.443 1.631.985.401.542 1.134.986 1.63.986.495 0 .901.221.901.492s.405.493.9.493c.496 0 1.229.443 1.631.985.401.542 1.134.986 1.63.986.495 0 .901.222.901.492 0 .271.405.493.9.493.496 0 1.229.444 1.63.986.402.541 1.135.985 1.631.985.495 0 .9.222.9.493s.456.492 1.013.492c.557 0 1.012.222 1.012.493s.456.493 1.013.493c.556 0 1.012.221 1.012.492s.405.493.901.493c.495 0 1.229.443 1.63.985.401.542 1.135.986 1.63.986.495 0 .901.221.901.492s.456.493 1.012.493c.557 0 1.013.222 1.013.493s.455.492 1.012.492c.557 0 1.012.222 1.012.493s.406.493.901.493c.496 0 1.229.443 1.63.985.402.542 1.135.985 1.631.985.495 0 .9.222.9.493s.456.493 1.013.493c.557 0 1.012.222 1.012.493s.456.492 1.013.492c.556 0 1.012.222 1.012.493s.456.493 1.012.493c.557 0 1.013.221 1.013.492s.455.493 1.012.493c.557 0 1.013.222 1.013.493s.455.492 1.012.492c.557 0 1.012.222 1.012.493s.456.493 1.013.493c.557 0 1.012.221 1.012.492s.456.493 1.012.493c.557 0 1.013.222 1.013.493s.683.492 1.518.492c.836 0 1.519.222 1.519.493s.456.493 1.012.493c.557 0 1.013.221 1.013.492s.455.493 1.012.493c.557 0 1.013.222 1.013.493s.683.492 1.518.492 1.519.222 1.519.493.683.493 1.518.493c.836 0 1.519.222 1.519.492 0 .271.911.493 2.025.493 1.113 0 2.024.222 2.024.493 0 .301 2.363.493 6.075.493s6.074.191 6.074.492c0 .313 3.881.493 10.63.493 6.749 0 10.63-.18 10.63-.493 0-.29 1.784-.492 4.339-.492 5.296 0 5.785.35 5.785 4.152 0 1.51.228 2.745.506 2.745.289 0 .506 1.478.506 3.449 0 1.971.218 3.449.507 3.449.281 0 .506 1.314.506 2.956s.225 2.956.506 2.956c.289 0 .506 1.478.506 3.449 0 1.97.217 3.448.506 3.448.282 0 .507 1.314.507 2.956s.224 2.956.506 2.956c.278 0 .506.444.506.986 0 .821-.338.985-2.025.985-1.113 0-2.025.222-2.025.493 0 .308-3.037.493-8.099.493s-8.099.184-8.099.492c0 .299-2.193.493-5.568.493-3.375 0-5.568-.194-5.568-.493 0-.309-3.206-.492-8.605-.492-5.4 0-8.606-.184-8.606-.493 0-.287-1.687-.493-4.049-.493-2.363 0-4.05-.205-4.05-.493 0-.271-.911-.492-2.024-.492-1.114 0-2.025-.222-2.025-.493s-.911-.493-2.025-.493c-1.114 0-2.025-.221-2.025-.492s-.683-.493-1.518-.493c-.836 0-1.519-.222-1.519-.493s-.455-.492-1.012-.492c-.557 0-1.013-.222-1.013-.493s-.683-.493-1.518-.493-1.519-.221-1.519-.492-.455-.493-1.012-.493c-.557 0-1.013-.222-1.013-.493s-.683-.492-1.518-.492-1.519-.222-1.519-.493-.455-.493-1.012-.493c-.557 0-1.013-.221-1.013-.492s-.455-.493-1.012-.493c-.557 0-1.012-.222-1.012-.493s-.456-.492-1.013-.492c-.557 0-1.012-.222-1.012-.493s-.456-.493-1.013-.493c-.556 0-1.012-.222-1.012-.492 0-.271-.455-.493-1.012-.493-.557 0-1.013-.222-1.013-.493s-.455-.493-1.012-.493c-.557 0-1.012-.221-1.012-.492s-.456-.493-1.013-.493c-.557 0-1.012-.222-1.012-.493s-.456-.492-1.013-.492c-.556 0-1.012-.222-1.012-.493s-.456-.493-1.012-.493c-.557 0-1.013-.221-1.013-.492s-.455-.493-1.012-.493c-.557 0-1.013-.222-1.013-.493s-.455-.492-1.012-.492c-.557 0-1.012-.222-1.012-.493s-.456-.493-1.013-.493c-.557 0-1.012-.221-1.012-.492s-.406-.493-.901-.493-1.229-.443-1.63-.985c-.401-.542-1.135-.986-1.63-.986-.496 0-.901-.221-.901-.492s-.456-.493-1.012-.493c-.557 0-1.013-.222-1.013-.493s-.455-.493-1.012-.493c-.557 0-1.013-.221-1.013-.492s-.405-.493-.9-.493c-.496 0-1.229-.443-1.631-.985-.401-.542-1.134-.986-1.63-.986-.495 0-.901-.221-.901-.492s-.405-.493-.9-.493c-.496 0-1.229-.443-1.63-.985-.402-.542-1.135-.986-1.631-.986-.495 0-.9-.221-.9-.492s-.456-.493-1.013-.493c-.557 0-1.012-.222-1.012-.493s-.406-.492-.901-.492-1.229-.444-1.63-.986c-.402-.542-1.135-.985-1.631-.985-.495 0-.9-.222-.9-.493s-.406-.492-.901-.492-1.229-.444-1.63-.986c-.402-.542-1.135-.985-1.631-.985-.495 0-.9-.222-.9-.493s-.406-.493-.901-.493-1.229-.443-1.63-.985c-.401-.542-1.135-.985-1.631-.985-.495 0-.9-.222-.9-.493s-.405-.493-.901-.493c-.495 0-1.229-.443-1.63-.985-.401-.542-1.085-.985-1.519-.985-.433 0-1.117-.444-1.518-.986-.402-.542-1.135-.985-1.631-.985-.495 0-.9-.222-.9-.493s-.406-.492-.901-.492-1.229-.444-1.63-.986c-.402-.542-1.085-.985-1.519-.985-.433 0-1.117-.444-1.518-.986-.402-.541-1.135-.985-1.631-.985-.495 0-.9-.222-.9-.493s-.406-.492-.901-.492-1.229-.444-1.63-.986c-.402-.542-1.085-.985-1.519-.985-.434 0-1.117-.443-1.518-.985-.402-.542-1.085-.986-1.519-.986-.434 0-1.117-.443-1.519-.985-.401-.542-1.084-.985-1.518-.985-.434 0-1.117-.444-1.519-.986-.401-.542-1.135-.985-1.63-.985-.862 0-.901 6.808-.901 156.672v156.672H665.139v2.464c0 1.355-.228 2.463-.507 2.463-.278 0-.506 1.109-.506 2.464s-.228 2.463-.506 2.463-.506.665-.506 1.478-.228 1.478-.506 1.478c-.279 0-.507.444-.507.986 0 .541-.227.985-.506.985-.278 0-.506.443-.506.985s-.228.986-.506.986c-.279 0-.506.443-.506.985s-.228.985-.507.985c-.278 0-.506.336-.506.746s-2.161 2.848-4.802 5.419c-2.641 2.571-5.147 4.674-5.568 4.674-.421 0-.766.222-.766.493s-.456.493-1.012.493c-.557 0-1.013.221-1.013.492s-.455.493-1.012.493c-.557 0-1.013.222-1.013.493s-.455.492-1.012.492c-.557 0-1.012.222-1.012.493s-.684.493-1.519.493c-.835 0-1.519.221-1.519.492s-.911.493-2.024.493c-1.114 0-2.025.222-2.025.493 0 .326-25.816.492-76.435.492-50.62 0-76.436-.166-76.436-.492 0-.271-1.139-.493-2.531-.493-1.392 0-2.531-.222-2.531-.493s-.683-.492-1.518-.492-1.519-.222-1.519-.493-.455-.493-1.012-.493c-.557 0-1.012-.221-1.012-.492s-.456-.493-1.013-.493c-.557 0-1.012-.222-1.012-.493s-.456-.492-1.013-.492c-.556 0-1.012-.222-1.012-.493s-.345-.493-.766-.493c-.999 0-10.37-9.121-10.37-10.093 0-.41-.228-.746-.506-.746-.279 0-.507-.443-.507-.985s-.227-.985-.506-.985c-.278 0-.506-.444-.506-.986s-.228-.985-.506-.985c-.279 0-.506-.444-.506-.985 0-.542-.228-.986-.507-.986-.278 0-.506-.665-.506-1.478s-.228-1.478-.506-1.478-.506-.887-.506-1.971-.228-1.97-.506-1.97c-.338 0-.507-99.358-.507-297.087V145.833h-16.198v292.652c0 194.773.169 292.652.506 292.652.279 0 .507.887.507 1.971s.227 1.971.506 1.971c.307 0 .506 2.135.506 5.419 0 3.285-.199 5.42-.506 5.42-.279 0-.506.887-.506 1.971 0 1.083-.228 1.97-.507 1.97-.278 0-.506.444-.506.986s-.228.985-.506.985-.506.443-.506.985-.228.986-.506.986c-.279 0-.507.394-.507.876 0 .483-.455 1.196-1.012 1.587-.557.391-1.012 1-1.012 1.353 0 .838-4.33 5.052-5.19 5.052-.364 0-.989.443-1.391.985-.401.542-1.135.986-1.63.986-.495 0-.901.221-.901.492s-.455.493-1.012.493c-.557 0-1.013.222-1.013.493s-.455.492-1.012.492c-.557 0-1.012.222-1.012.493s-.684.493-1.519.493c-.835 0-1.519.221-1.519.492s-1.138.493-2.531.493c-1.392 0-2.53.222-2.53.493 0 .326-25.816.492-76.436.492-50.619 0-76.435-.166-76.435-.492 0-.271-.911-.493-2.025-.493-1.113 0-2.025-.222-2.025-.493s-.683-.492-1.518-.492-1.519-.222-1.519-.493-.455-.493-1.012-.493c-.557 0-1.012-.221-1.012-.492s-.456-.493-1.013-.493c-.557 0-1.012-.222-1.012-.493s-.456-.492-1.013-.492c-.556 0-1.012-.222-1.012-.493s-.345-.493-.766-.493c-.999 0-10.37-9.121-10.37-10.093 0-.41-.228-.746-.506-.746-.279 0-.507-.443-.507-.985s-.227-.985-.506-.985c-.278 0-.506-.444-.506-.986s-.228-.985-.506-.985c-.279 0-.506-.444-.506-.985 0-.542-.228-.986-.507-.986-.278 0-.506-.665-.506-1.478s-.228-1.478-.506-1.478-.506-1.108-.506-2.463-.228-2.464-.506-2.464c-.336 0-.507-30.546-.507-90.653 0-60.107.171-90.653.507-90.653.278 0 .506-.887.506-1.971s.228-1.97.506-1.97.506-.666.506-1.479c0-.812.228-1.478.506-1.478.279 0 .507-.443.507-.985s.227-.985.506-.985c.278 0 .506-.444.506-.986s.228-.985.506-.985c.279 0 .506-.443.506-.985s.228-.986.507-.986c.278 0 .506-.335.506-.745 0-.972 9.371-10.094 10.37-10.094.421 0 .766-.221.766-.492s.456-.493 1.012-.493c.557 0 1.013-.222 1.013-.493s.455-.492 1.012-.492c.557 0 1.013-.222 1.013-.493s.455-.493 1.012-.493c.557 0 1.012-.221 1.012-.492s.684-.493 1.519-.493c.835 0 1.518-.222 1.518-.493s1.139-.492 2.531-.492c1.392 0 2.531-.222 2.531-.493 0-.326 23.792-.493 70.361-.493h70.361v-49.761c0-47.374-.043-49.76-.9-49.76-.496 0-1.229.443-1.631.985-.401.542-1.084.985-1.518.985-.434 0-1.117.444-1.519.986-.401.542-1.135.985-1.63.985-.495 0-.901.222-.901.493s-.405.493-.9.493c-.496 0-1.229.443-1.631.985-.401.542-1.085.985-1.518.985-.434 0-1.118.444-1.519.986-.401.542-1.135.985-1.63.985-.495 0-.901.222-.901.493s-.405.492-.9.492c-.496 0-1.23.444-1.631.986s-1.135.985-1.63.985c-.495 0-.901.222-.901.493s-.405.492-.9.492c-.496 0-1.229.444-1.631.986-.401.542-1.135.985-1.63.985-.495 0-.901.222-.901.493s-.405.493-.9.493c-.496 0-1.229.443-1.631.985-.401.542-1.135.985-1.63.985-.495 0-.901.222-.901.493s-.405.493-.9.493c-.496 0-1.229.443-1.631.985-.401.542-1.135.985-1.63.985-.495 0-.901.222-.901.493s-.405.493-.9.493c-.496 0-1.229.443-1.631.985-.401.542-1.135.985-1.63.985-.495 0-.901.222-.901.493s-.455.493-1.012.493c-.557 0-1.012.221-1.012.492s-.406.493-.901.493-1.229.444-1.63.985c-.402.542-1.135.986-1.631.986-.495 0-.9.222-.9.493s-.456.492-1.013.492c-.557 0-1.012.222-1.012.493s-.456.493-1.013.493c-.556 0-1.012.221-1.012.492s-.455.493-1.012.493c-.557 0-1.013.222-1.013.493s-.405.492-.9.492c-.496 0-1.229.444-1.631.986-.401.542-1.135.985-1.63.985-.495 0-.901.222-.901.493s-.455.492-1.012.492c-.557 0-1.012.222-1.012.493s-.456.493-1.013.493c-.557 0-1.012.221-1.012.492s-.456.493-1.013.493c-.556 0-1.012.222-1.012.493s-.456.492-1.012.492c-.557 0-1.013.222-1.013.493s-.455.493-1.012.493c-.557 0-1.012.222-1.012.493 0 .27-.456.492-1.013.492-.557 0-1.012.222-1.012.493s-.456.493-1.013.493c-.556 0-1.012.221-1.012.492s-.683.493-1.519.493c-.835 0-1.518.222-1.518.493s-.456.492-1.013.492c-.556 0-1.012.222-1.012.493s-.456.493-1.012.493c-.557 0-1.013.221-1.013.492s-.683.493-1.518.493c-.836 0-1.519.222-1.519.493s-.455.492-1.012.492c-.557 0-1.013.222-1.013.493s-.683.493-1.518.493-1.519.221-1.519.492-.683.493-1.518.493c-.836 0-1.519.222-1.519.493s-.683.492-1.519.492c-.835 0-1.518.222-1.518.493s-.911.493-2.025.493c-1.114 0-2.025.221-2.025.492 0 .288-1.687.493-4.049.493-2.363 0-4.05.206-4.05.493 0 .31-3.375.493-9.111.493-5.737 0-9.112.182-9.112.492 0 .296-2.025.493-5.062.493-3.037 0-5.062-.197-5.062-.493 0-.309-3.205-.492-8.605-.492s-8.605-.184-8.605-.493c0-.271-.684-.493-1.519-.493-1.484 0-1.518-.055-1.518-2.463 0-1.355.227-2.464.506-2.464.289 0 .506-1.478.506-3.448 0-1.971.217-3.449.506-3.449.282 0 .506-1.314.506-2.956s.225-2.956.507-2.956c.281 0 .506-1.314.506-2.956 0-1.643.224-2.957.506-2.957.289 0 .506-1.478.506-3.448 0-1.971.217-3.449.506-3.449.279 0 .507-.887.507-1.971v-1.97h5.061c3.038 0 5.062.197 5.062.492 0 .312 3.712.493 10.124.493 6.412 0 10.124-.181 10.124-.493 0-.303 2.531-.492 6.581-.492 4.049 0 6.58-.19 6.58-.493 0-.271.684-.493 1.519-.493.835 0 1.518-.222 1.518-.493 0-.27.911-.492 2.025-.492 1.114 0 2.025-.222 2.025-.493s.455-.493 1.012-.493c.557 0 1.013-.221 1.013-.492s.683-.493 1.518-.493 1.519-.222 1.519-.493.455-.492 1.012-.492c.557 0 1.013-.222 1.013-.493s.455-.493 1.012-.493c.557 0 1.012-.221 1.012-.492s.456-.493 1.013-.493c.557 0 1.012-.222 1.012-.493s.456-.492 1.013-.492c.556 0 1.012-.222 1.012-.493s.456-.493 1.012-.493c.557 0 1.013-.221 1.013-.492s.455-.493 1.012-.493c.557 0 1.012-.222 1.012-.493s.456-.492 1.013-.492c.557 0 1.012-.222 1.012-.493s.456-.493 1.013-.493c.556 0 1.012-.221 1.012-.492s.456-.493 1.012-.493c.557 0 1.013-.222 1.013-.493s.455-.493 1.012-.493c.557 0 1.013-.221 1.013-.492s.455-.493 1.012-.493c.557 0 1.012-.222 1.012-.493s.456-.492 1.013-.492c.557 0 1.012-.222 1.012-.493s.406-.493.901-.493 1.229-.443 1.63-.985c.402-.542 1.135-.985 1.631-.985.495 0 .9-.222.9-.493s.456-.493 1.012-.493c.557 0 1.013-.221 1.013-.492s.455-.493 1.012-.493c.557 0 1.013-.222 1.013-.493s.405-.492.9-.492c.496 0 1.229-.444 1.631-.986.401-.542 1.134-.985 1.63-.985.495 0 .901-.222.901-.493s.455-.492 1.012-.492c.557 0 1.012-.222 1.012-.493s.406-.493.901-.493 1.229-.443 1.63-.985c.402-.542 1.135-.986 1.631-.986.495 0 .9-.221.9-.492s.406-.493.901-.493 1.229-.443 1.63-.985c.402-.542 1.135-.986 1.631-.986.495 0 .9-.221.9-.492s.406-.493.901-.493 1.229-.443 1.63-.985c.402-.542 1.085-.986 1.519-.986.434 0 1.117-.443 1.518-.985.402-.542 1.135-.985 1.631-.985.495 0 .9-.222.9-.493s.406-.493.901-.493 1.229-.443 1.63-.985c.402-.542 1.135-.986 1.631-.986.495 0 .9-.221.9-.492s.406-.493.901-.493 1.229-.443 1.63-.985c.402-.542 1.085-.986 1.519-.986.434 0 1.117-.443 1.518-.985.402-.542 1.135-.985 1.631-.985.495 0 .9-.222.9-.493s.406-.493.901-.493 1.229-.443 1.63-.985c.402-.542 1.085-.985 1.519-.985.434 0 1.117-.444 1.518-.986.402-.542 1.135-.985 1.631-.985.495 0 .9-.222.9-.493s.406-.492.901-.492c.496 0 1.229-.444 1.63-.986.402-.542 1.085-.985 1.519-.985.434 0 1.117-.444 1.519-.986.401-.542 1.084-.985 1.518-.985.434 0 1.117-.443 1.519-.985.401-.542 1.085-.986 1.518-.986.434 0 1.117-.443 1.519-.985.401-.542 1.037-.985 1.413-.985 2.149 0 2.13.313 2.13-35.192 0-33.455-.009-33.784-1.012-33.784-.557 0-1.013.222-1.013.493s-.405.493-.9.493c-.496 0-1.229.443-1.63.985-.402.542-1.085.985-1.519.985-.434 0-1.117.444-1.519.986-.401.542-1.135.985-1.63.985-.495 0-.901.222-.901.493s-.405.493-.9.493c-.496 0-1.229.443-1.631.985-.401.542-1.084.985-1.518.985-.434 0-1.117.444-1.519.986-.401.542-1.135.985-1.63.985-.495 0-.901.222-.901.493s-.405.492-.9.492c-.496 0-1.229.444-1.631.986-.401.542-1.135.985-1.63.985-.495 0-.901.222-.901.493s-.405.492-.9.492c-.496 0-1.229.444-1.631.986-.401.542-1.135.985-1.63.985-.495 0-.901.222-.901.493s-.405.493-.9.493c-.496 0-1.229.443-1.631.985-.401.542-1.134.985-1.63.985-.495 0-.901.222-.901.493s-.405.493-.9.493c-.496 0-1.229.443-1.631.985-.401.542-1.134.985-1.63.985-.495 0-.9.222-.9.493s-.406.493-.901.493c-.496 0-1.229.443-1.63.985-.402.542-1.135.985-1.631.985-.495 0-.9.222-.9.493s-.456.493-1.013.493c-.557 0-1.012.221-1.012.492s-.456.493-1.013.493c-.556 0-1.012.222-1.012.493s-.405.492-.9.492c-.496 0-1.23.444-1.631.986s-1.135.985-1.63.985c-.495 0-.901.222-.901.493s-.455.493-1.012.493c-.557 0-1.013.221-1.013.492s-.455.493-1.012.493c-.557 0-1.012.222-1.012.493s-.456.492-1.013.492c-.557 0-1.012.222-1.012.493s-.456.493-1.013.493c-.556 0-1.012.221-1.012.492s-.405.493-.901.493c-.495 0-1.229.443-1.63.985-.401.542-1.135.986-1.63.986-.495 0-.901.221-.901.492s-.456.493-1.012.493c-.557 0-1.013.222-1.013.493s-.455.492-1.012.492c-.557 0-1.012.222-1.012.493s-.456.493-1.013.493c-.557 0-1.012.222-1.012.492 0 .271-.684.493-1.519.493-.835 0-1.518.222-1.518.493s-.456.493-1.013.493c-.557 0-1.012.221-1.012.492s-.456.493-1.013.493c-.556 0-1.012.222-1.012.493s-.456.492-1.012.492c-.557 0-1.013.222-1.013.493s-.683.493-1.518.493c-.836 0-1.519.221-1.519.492s-.455.493-1.012.493c-.557 0-1.013.222-1.013.493s-.455.492-1.012.492c-.557 0-1.012.222-1.012.493s-.684.493-1.519.493c-.835 0-1.519.221-1.519.492s-.683.493-1.518.493-1.519.222-1.519.493-.911.492-2.025.492c-1.113 0-2.024.222-2.024.493s-1.139.493-2.531.493c-1.392 0-2.531.221-2.531.492 0 .296-2.025.493-5.062.493-3.037 0-5.062.197-5.062.493 0 .32-6.581.493-18.729.493-12.149 0-18.729-.173-18.729-.493 0-.281-1.519-.493-3.544-.493h-3.543v-1.478c0-.813.228-1.478.506-1.478.281 0 .506-1.314.506-2.956s.225-2.956.506-2.956c.282 0 .507-1.314.507-2.956s.224-2.956.506-2.956c.289 0 .506-1.478.506-3.449 0-1.971.217-3.449.506-3.449.282 0 .506-1.314.506-2.956s.225-2.956.507-2.956c.281 0 .506-1.314.506-2.956s.224-2.956.506-2.956c.278 0 .506-.444.506-.985 0-.542.228-.986.506-.986.279 0 .507.222.507.493 0 .32 6.749.493 19.235.493s19.235-.173 19.235-.493c0-.274 1.35-.493 3.037-.493 1.688 0 3.038-.219 3.038-.493 0-.27.683-.492 1.518-.492s1.519-.222 1.519-.493.683-.493 1.518-.493c.836 0 1.519-.221 1.519-.492s.455-.493 1.012-.493c.557 0 1.013-.222 1.013-.493s.683-.492 1.518-.492 1.519-.222 1.519-.493.455-.493 1.012-.493c.557 0 1.013-.221 1.013-.492s.455-.493 1.012-.493c.557 0 1.012-.222 1.012-.493s.456-.492 1.013-.492c.557 0 1.012-.222 1.012-.493s.456-.493 1.013-.493c.556 0 1.012-.221 1.012-.492s.456-.493 1.012-.493c.557 0 1.013-.222 1.013-.493s.455-.492 1.012-.492c.557 0 1.012-.222 1.012-.493s.456-.493 1.013-.493c.557 0 1.012-.222 1.012-.492 0-.271.456-.493 1.013-.493.556 0 1.012-.222 1.012-.493s.456-.493 1.012-.493c.557 0 1.013-.221 1.013-.492s.455-.493 1.012-.493c.557 0 1.013-.222 1.013-.493s.455-.492 1.012-.492c.557 0 1.012-.222 1.012-.493s.406-.493.901-.493 1.229-.443 1.63-.985c.402-.542 1.135-.985 1.631-.985.495 0 .9-.222.9-.493s.456-.493 1.013-.493c.556 0 1.012-.221 1.012-.492s.456-.493 1.012-.493c.557 0 1.013-.222 1.013-.493s.405-.492.9-.492c.496 0 1.229-.444 1.631-.986.401-.542 1.135-.985 1.63-.985.495 0 .901-.222.901-.493s.405-.492.9-.492c.496 0 1.229-.444 1.631-.986.401-.542 1.135-.985 1.63-.985.495 0 .901-.222.901-.493s.405-.493.9-.493c.496 0 1.229-.443 1.631-.985.401-.542 1.135-.985 1.63-.985.495 0 .901-.222.901-.493s.405-.493.9-.493c.496 0 1.229-.443 1.631-.985.401-.542 1.135-.985 1.63-.985.495 0 .901-.222.901-.493s.455-.493 1.012-.493c.557 0 1.012-.221 1.012-.492s.406-.493.901-.493 1.229-.443 1.63-.985c.402-.542 1.085-.986 1.519-.986.434 0 1.117-.443 1.518-.985.402-.542 1.135-.986 1.631-.986.495 0 .9-.221.9-.492s.406-.493.901-.493c.496 0 1.229-.443 1.63-.985.402-.542 1.085-.986 1.519-.986.434 0 1.117-.443 1.519-.985.401-.542 1.134-.985 1.63-.985.495 0 .901-.222.901-.493s.405-.493.9-.493c.496 0 1.229-.443 1.631-.985.401-.542 1.084-.985 1.518-.985.434 0 1.117-.444 1.519-.986.401-.542 1.135-.985 1.63-.985.495 0 .901-.222.901-.493s.364-.492.809-.492c.445 0 1.448-.666 2.228-1.479.78-.812 1.783-1.478 2.228-1.478.445 0 .809-.221.809-.492s.405-.493.9-.493c.496 0 1.23-.443 1.631-.985s1.085-.986 1.519-.986c.433 0 1.117-.443 1.518-.985.402-.542 1.085-.985 1.519-.985.434 0 1.117-.444 1.518-.986.402-.542 1.135-.985 1.631-.985.854 0 .9-1.653.9-32.024 0-21.021-.174-32.025-.506-32.025a.501.501 0 00-.506.493c0 .271-.406.493-.901.493s-1.229.443-1.63.985c-.402.542-1.135.986-1.631.986-.495 0-.9.221-.9.492s-.406.493-.901.493-1.229.443-1.63.985c-.401.542-1.085.986-1.519.986-.433 0-1.117.443-1.518.985-.402.542-1.135.985-1.631.985-.495 0-.9.222-.9.493s-.406.493-.901.493-1.229.443-1.63.985c-.402.542-1.085.985-1.519.985-.434 0-1.117.444-1.518.986-.402.542-1.135.985-1.631.985-.495 0-.9.222-.9.493s-.406.493-.901.493-1.229.443-1.63.985c-.402.542-1.135.985-1.631.985-.495 0-.9.222-.9.493s-.406.493-.901.493-1.229.443-1.63.985c-.402.542-1.135.985-1.631.985-.495 0-.9.222-.9.493s-.406.493-.901.493-1.229.443-1.63.985c-.402.542-1.135.985-1.631.985-.495 0-.9.222-.9.493s-.406.493-.901.493-1.229.443-1.63.985c-.401.542-1.135.985-1.631.985-.495 0-.9.222-.9.493s-.456.493-1.012.493c-.557 0-1.013.222-1.013.493s-.405.492-.9.492c-.496 0-1.229.444-1.631.986-.401.542-1.135.985-1.63.985-.495 0-.901.222-.901.493s-.405.492-.9.492c-.496 0-1.229.444-1.631.986-.401.542-1.135.985-1.63.985-.495 0-.901.222-.901.493s-.455.492-1.012.492c-.557 0-1.012.222-1.012.493s-.456.493-1.013.493c-.557 0-1.012.221-1.012.492s-.456.493-1.013.493c-.556 0-1.012.222-1.012.493s-.405.492-.901.492c-.495 0-1.229.444-1.63.986-.401.542-1.135.985-1.63.985-.495 0-.901.222-.901.493s-.456.493-1.012.493c-.557 0-1.013.221-1.013.492s-.455.493-1.012.493c-.557 0-1.012.222-1.012.493s-.456.492-1.013.492c-.557 0-1.012.222-1.012.493s-.456.493-1.013.493c-.556 0-1.012.221-1.012.492s-.456.493-1.012.493c-.557 0-1.013.222-1.013.493s-.455.492-1.012.492c-.557 0-1.013.222-1.013.493s-.455.493-1.012.493c-.557 0-1.012.221-1.012.492s-.684.493-1.519.493c-.835 0-1.519.222-1.519.493s-.455.492-1.012.492c-.557 0-1.012.222-1.012.493s-.456.493-1.013.493c-.556 0-1.012.221-1.012.492s-.683.493-1.519.493c-.835 0-1.518.222-1.518.493s-.456.493-1.013.493c-.556 0-1.012.221-1.012.492s-.683.493-1.519.493c-.835 0-1.518.222-1.518.493s-.684.492-1.519.492c-.835 0-1.518.222-1.518.493s-.684.493-1.519.493c-.835 0-1.518.221-1.518.492s-.912.493-2.025.493c-1.114 0-2.025.222-2.025.493 0 .287-1.687.492-4.05.492-2.362 0-4.049.206-4.049.493 0 .31-3.375.493-9.112.493-5.736 0-9.111.182-9.111.492 0 .296-2.025.493-5.062.493-3.037 0-5.062-.197-5.062-.493 0-.309-3.206-.492-8.605-.492-5.4 0-8.606-.184-8.606-.493 0-.271-.683-.493-1.518-.493-1.485 0-1.519-.054-1.519-2.463 0-1.355.228-2.463.506-2.463.289 0 .507-1.479.507-3.449 0-1.971.217-3.449.506-3.449.281 0 .506-1.314.506-2.956s.225-2.956.506-2.956c.282 0 .506-1.314.506-2.956s.225-2.956.507-2.956c.289 0 .506-1.478.506-3.449 0-1.971.217-3.449.506-3.449.278 0 .506-.887.506-1.971v-1.97h5.062c3.037 0 5.062.197 5.062.492 0 .313 3.881.493 10.63.493 6.749 0 10.63-.18 10.63-.493 0-.301 2.363-.492 6.075-.492 3.711 0 6.074-.192 6.074-.493 0-.271.911-.493 2.025-.493 1.113 0 2.024-.221 2.024-.492s.456-.493 1.013-.493c.557 0 1.012-.222 1.012-.493s.684-.492 1.519-.492c.835 0 1.518-.222 1.518-.493s.684-.493 1.519-.493c.835 0 1.519-.221 1.519-.492s.455-.493 1.012-.493c.557 0 1.012-.222 1.012-.493s.456-.492 1.013-.492c.556 0 1.012-.222 1.012-.493s.456-.493 1.012-.493c.557 0 1.013-.222 1.013-.493 0-.27.455-.492 1.012-.492.557 0 1.013-.222 1.013-.493s.455-.493 1.012-.493c.557 0 1.012-.221 1.012-.492s.456-.493 1.013-.493c.557 0 1.012-.222 1.012-.493s.456-.492 1.013-.492c.556 0 1.012-.222 1.012-.493s.456-.493 1.012-.493c.557 0 1.013-.221 1.013-.492s.455-.493 1.012-.493c.557 0 1.012-.222 1.012-.493s.456-.492 1.013-.492c.557 0 1.012-.222 1.012-.493s.456-.493 1.013-.493c.556 0 1.012-.221 1.012-.492s.456-.493 1.012-.493c.557 0 1.013-.222 1.013-.493s.405-.492.9-.492c.496 0 1.229-.444 1.631-.986.401-.542 1.135-.985 1.63-.985.495 0 .901-.222.901-.493s.455-.493 1.012-.493c.557 0 1.013-.221 1.013-.492s.455-.493 1.012-.493c.557 0 1.012-.222 1.012-.493s.406-.492.901-.492 1.229-.444 1.63-.986c.402-.542 1.135-.985 1.631-.985.495 0 .9-.222.9-.493s.406-.492.901-.492 1.229-.444 1.63-.986c.402-.542 1.135-.985 1.631-.985.495 0 .9-.222.9-.493s.456-.492 1.013-.492c.556 0 1.012-.222 1.012-.493s.405-.493.9-.493c.496 0 1.229-.443 1.631-.985.401-.542 1.135-.985 1.63-.985.495 0 .901-.222.901-.493s.405-.493.9-.493c.496 0 1.229-.443 1.631-.985.401-.542 1.085-.986 1.518-.986.434 0 1.118-.443 1.519-.985.401-.542 1.135-.985 1.63-.985.496 0 .901-.222.901-.493s.405-.493.9-.493c.496 0 1.23-.443 1.631-.985s1.135-.985 1.63-.985c.495 0 .901-.222.901-.493s.405-.493.9-.493c.496 0 1.229-.443 1.631-.985.401-.542 1.085-.985 1.518-.985.434 0 1.118-.444 1.519-.986.401-.542 1.135-.985 1.63-.985.496 0 .901-.222.901-.493s.405-.493.901-.493c.495 0 1.229-.443 1.63-.985.401-.542 1.085-.985 1.519-.985.433 0 1.117-.444 1.518-.986.402-.542 1.135-.985 1.631-.985.495 0 .9-.222.9-.493s.406-.492.901-.492 1.229-.444 1.63-.986c.401-.542 1.085-.985 1.519-.985.433 0 1.117-.443 1.518-.985.402-.542 1.085-.986 1.519-.986.434 0 1.117-.443 1.518-.985.402-.542 1.085-.985 1.519-.985.434 0 1.117-.444 1.519-.986.401-.542 1.084-.985 1.518-.985.434 0 1.117-.444 1.519-.986.401-.542 1.085-.985 1.518-.985.434 0 1.117-.443 1.519-.985.401-.542 1.037-.986 1.413-.986 2.133 0 2.13.038 2.13-30.757v-29.35h89.09v30.054zM631.73 540.47c0 .271.911.493 2.025.493 1.113 0 2.024.222 2.024.493s.684.492 1.519.492c.835 0 1.518.222 1.518.493s.456.493 1.013.493c.557 0 1.012.221 1.012.492s.456.493 1.013.493c.556 0 1.012.222 1.012.493s.456.492 1.012.492c.557 0 1.013.222 1.013.493s.344.493.766.493c.998 0 10.37 9.121 10.37 10.093 0 .41.228.746.506.746.279 0 .506.443.506.985s.228.985.507.985c.278 0 .506.444.506.986s.228.985.506.985.506.443.506.985.228.986.506.986c.279 0 .507.665.507 1.478s.227 1.478.506 1.478c.278 0 .506 1.108.506 2.463s.228 2.464.506 2.464c.279 0 .506 1.108.506 2.463v2.463H536.565v98.537h125.536v2.463c0 1.355-.227 2.463-.506 2.463-.278 0-.506 1.109-.506 2.464s-.228 2.463-.506 2.463c-.279 0-.506.665-.506 1.478s-.228 1.478-.507 1.478c-.278 0-.506.444-.506.986 0 .541-.228.985-.506.985s-.506.443-.506.985-.228.986-.506.986c-.279 0-.507.443-.507.985s-.227.985-.506.985c-.278 0-.506.336-.506.746s-2.161 2.848-4.802 5.419c-2.642 2.571-5.147 4.674-5.568 4.674-.422 0-.766.222-.766.493s-.456.493-1.013.493c-.556 0-1.012.221-1.012.492s-.456.493-1.012.493c-.557 0-1.013.222-1.013.493s-.455.492-1.012.492c-.557 0-1.013.222-1.013.493s-.683.493-1.518.493-1.519.221-1.519.492-.911.493-2.024.493c-1.114 0-2.025.222-2.025.493 0 .325-17.042.492-50.113.492-33.072 0-50.114-.167-50.114-.492 0-.271-1.139-.493-2.531-.493-1.392 0-2.531-.222-2.531-.493s-.683-.492-1.518-.492-1.519-.222-1.519-.493-.455-.493-1.012-.493c-.557 0-1.012-.221-1.012-.492s-.456-.493-1.013-.493c-.557 0-1.012-.222-1.012-.493s-.456-.492-1.013-.492c-.556 0-1.012-.222-1.012-.493s-.345-.493-.766-.493c-.999 0-10.37-9.121-10.37-10.093 0-.41-.228-.746-.506-.746-.279 0-.507-.443-.507-.985s-.227-.985-.506-.985c-.278 0-.506-.444-.506-.986s-.228-.985-.506-.985c-.279 0-.506-.444-.506-.985 0-.542-.228-.986-.507-.986-.278 0-.506-.665-.506-1.478s-.228-1.478-.506-1.478-.506-1.108-.506-2.463-.228-2.464-.506-2.464c-.335 0-.507-18.393-.507-54.195 0-35.801.172-54.194.507-54.194.278 0 .506-1.109.506-2.464s.228-2.463.506-2.463.506-.665.506-1.478.228-1.478.506-1.478c.279 0 .507-.444.507-.986s.227-.985.506-.985c.278 0 .506-.443.506-.985s.228-.986.506-.986c.279 0 .506-.443.506-.985s.228-.985.507-.985c.278 0 .506-.336.506-.746 0-.972 9.371-10.093 10.37-10.093.421 0 .766-.222.766-.493s.456-.493 1.012-.493c.557 0 1.013-.221 1.013-.492s.455-.493 1.012-.493c.557 0 1.013-.222 1.013-.493s.455-.492 1.012-.492c.557 0 1.012-.222 1.012-.493s.684-.493 1.519-.493c.835 0 1.518-.221 1.518-.492s.912-.493 2.025-.493c1.114 0 2.025-.222 2.025-.493 0-.325 17.211-.493 50.619-.493 33.409 0 50.62.168 50.62.493zM262.208 648.86v85.233h135.66V563.626h-135.66v85.234z"/></mask><path clip-rule="evenodd" d="M0 437.5V875h899V0H0v437.5zM677.287 55.938c0 .417 2.05 2.736 4.556 5.154 2.506 2.418 4.556 4.636 4.556 4.927 0 .292 2.05 2.509 4.555 4.927 2.506 2.418 4.556 4.635 4.556 4.927 0 .291 2.05 2.508 4.556 4.927 2.506 2.418 4.556 4.635 4.556 4.926 0 .292 2.05 2.51 4.555 4.927 2.506 2.418 4.556 4.635 4.556 4.927 0 .292 2.05 2.509 4.556 4.927 2.506 2.418 4.556 4.638 4.556 4.935 0 .297 1.366 1.845 3.037 3.44l3.037 2.902v654.368l-5.062 4.893c-2.784 2.691-5.062 5.124-5.062 5.408 0 .284-6.378 6.718-14.173 14.299-7.796 7.58-14.174 14.008-14.174 14.284 0 .276-4.668 5.046-10.374 10.599L669.7 825.732H229.206l-1.419-1.478c-.78-.813-1.691-1.478-2.025-1.478-.333 0-1.244-.665-2.024-1.478s-1.692-1.478-2.025-1.478c-.334 0-1.245-.665-2.025-1.478-.78-.813-1.691-1.478-2.025-1.478-.333 0-1.244-.665-2.024-1.478-.781-.813-1.692-1.478-2.025-1.478-.334 0-1.245-.665-2.025-1.478-.78-.813-1.687-1.478-2.015-1.478-.327 0-1.471-.887-2.541-1.971-1.07-1.084-2.213-1.971-2.541-1.971-.328 0-1.234-.665-2.015-1.478-.78-.813-1.691-1.478-2.024-1.478-.334 0-1.245-.665-2.025-1.478-.78-.813-1.691-1.478-2.025-1.478-.333 0-1.245-.665-2.025-1.478-.78-.813-1.691-1.478-2.024-1.478-.334 0-1.245-.665-2.025-1.478-.78-.813-1.691-1.478-2.025-1.478-.334 0-1.245-.665-2.025-1.478-.78-.813-1.691-1.478-2.024-1.478-.334 0-1.245-.665-2.025-1.478-.78-.813-1.691-1.478-2.025-1.478-.334 0-1.245-.665-2.025-1.478-.78-.813-1.691-1.478-2.025-1.478-.333 0-1.244-.666-2.024-1.478-.78-.813-1.692-1.478-2.025-1.478-.334 0-1.245-.666-2.025-1.479-.78-.812-1.691-1.478-2.025-1.478-.333 0-1.244-.665-2.024-1.478-.781-.813-1.686-1.478-2.012-1.478-.325 0-.917-.316-1.315-.704-.625-.608-.723-46.036-.723-335.774V105.9l2.265-2.204c1.245-1.212 2.507-2.204 2.805-2.204.298 0 2.344-1.773 4.548-3.941 2.203-2.168 4.254-3.942 4.558-3.942.304 0 2.125-1.552 4.047-3.448 1.922-1.897 3.743-3.45 4.047-3.45.304 0 2.355-1.773 4.558-3.94 2.204-2.168 4.254-3.942 4.556-3.942.302 0 2.352-1.774 4.556-3.942 2.203-2.167 4.254-3.941 4.558-3.941.304 0 2.125-1.552 4.047-3.449 1.922-1.897 3.743-3.449 4.047-3.449.304 0 2.355-1.773 4.558-3.941 2.204-2.168 4.358-3.941 4.787-3.941.43 0 .781-.222.781-.493 0-.328 76.436-.493 228.294-.493 205.123 0 228.293.077 228.293.758zM231.331 93.609c-1.532 1.594-3.079 2.91-3.439 2.927-.36.016-2.457 1.803-4.661 3.971-2.203 2.168-4.253 3.941-4.555 3.941-.303 0-2.353 1.774-4.556 3.942-2.204 2.167-4.255 3.941-4.558 3.941-.305 0-2.125 1.552-4.047 3.449-1.922 1.897-3.744 3.449-4.048 3.449-.305 0-1.113.544-1.796 1.209l-1.243 1.209v318.329c0 275.229.098 318.424.723 319.033.398.387.99.704 1.315.704.326 0 1.231.665 2.011 1.478.781.813 1.692 1.478 2.025 1.478.334 0 1.245.665 2.025 1.478.78.813 1.691 1.478 2.025 1.478.333 0 1.245.665 2.025 1.478.78.813 1.691 1.478 2.024 1.478.334 0 1.245.665 2.025 1.478.78.813 1.687 1.478 2.015 1.478.327 0 1.471.887 2.541 1.971 1.07 1.084 2.254 1.971 2.633 1.971.378 0 1.015.443 1.416.985.402.542 1.044.985 1.428.985.383 0 1.336.665 2.116 1.478s1.686 1.478 2.014 1.478c.328 0 1.471.887 2.542 1.971 1.07 1.084 2.213 1.971 2.541 1.971.328 0 1.234.665 2.014 1.478.78.813 1.691 1.478 2.025 1.478.334 0 1.245.665 2.025 1.478l1.418 1.478h413.169l4.295-4.181c2.363-2.299 4.296-4.408 4.296-4.686 0-.279 6.606-6.93 14.679-14.782l14.68-14.275V125.569l-2.531-2.399c-1.392-1.32-2.531-2.644-2.531-2.943 0-.299-2.05-2.522-4.556-4.94-2.505-2.418-4.555-4.634-4.555-4.925 0-.291-2.278-2.73-5.062-5.421-2.784-2.691-5.062-5.125-5.062-5.41 0-.284-1.933-2.398-4.296-4.697l-4.295-4.18-212.735.029-212.735.03-2.784 2.896zm255.627 46.805c0 16.529.13 30.053.289 30.053.595 0 1.736-1.435 1.736-2.182 0-1.155 2.649-.997 3.543.212.402.542 1.085.985 1.519.985.434 0 1.117.443 1.519.985.401.542 1.084.986 1.518.986.434 0 1.117.443 1.519.985.401.542 1.085.985 1.518.985.434 0 1.118.444 1.519.986.401.542 1.085.985 1.519.985.433 0 1.117.444 1.518.986.402.541 1.085.985 1.519.985.434 0 1.117.443 1.518.985.402.542 1.085.986 1.519.986.434 0 1.117.443 1.518.985.402.542 1.135.985 1.631.985.495 0 .9.222.9.493s.406.493.901.493 1.229.443 1.63.985c.402.542 1.085.985 1.519.985.434 0 1.117.444 1.519.986.401.542 1.084.985 1.518.985.434 0 1.117.444 1.519.985.401.542 1.135.986 1.63.986.495 0 .901.222.901.493 0 .27.405.492.9.492.496 0 1.229.444 1.631.986.401.542 1.134.985 1.63.985.495 0 .901.222.901.493s.405.492.9.492c.496 0 1.229.444 1.631.986.401.542 1.084.985 1.518.985.434 0 1.117.443 1.519.985.401.542 1.135.986 1.63.986.495 0 .901.221.901.492s.405.493.9.493c.496 0 1.229.443 1.631.985.401.542 1.135.986 1.63.986.495 0 .901.222.901.492 0 .271.405.493.9.493.496 0 1.229.444 1.631.986.401.541 1.134.985 1.63.985.495 0 .901.222.901.493s.405.492.9.492c.496 0 1.229.444 1.631.986.401.542 1.134.985 1.63.985.495 0 .901.222.901.493s.405.492.9.492c.496 0 1.229.444 1.63.986.402.542 1.135.985 1.631.985.495 0 .9.222.9.493s.456.492 1.013.492c.557 0 1.012.222 1.012.493s.406.493.901.493 1.229.443 1.63.985c.402.542 1.135.985 1.631.985.495 0 .9.222.9.493s.456.493 1.013.493c.556 0 1.012.222 1.012.493 0 .27.456.492 1.012.492.557 0 1.013.222 1.013.493s.455.493 1.012.493c.557 0 1.012.221 1.012.492s.406.493.901.493c.496 0 1.229.443 1.63.985.402.542 1.135.986 1.631.986.495 0 .9.221.9.492s.456.493 1.013.493c.557 0 1.012.222 1.012.493s.456.492 1.013.492c.556 0 1.012.222 1.012.493s.456.493 1.012.493c.557 0 1.013.221 1.013.492s.455.493 1.012.493c.557 0 1.013.222 1.013.493s.455.492 1.012.492c.557 0 1.012.222 1.012.493s.456.493 1.013.493c.557 0 1.012.222 1.012.492 0 .271.456.493 1.012.493.557 0 1.013.222 1.013.493s.683.493 1.518.493c.836 0 1.519.221 1.519.492s.456.493 1.012.493c.557 0 1.013.222 1.013.493s.683.492 1.518.492c.836 0 1.519.222 1.519.493s.456.493 1.012.493c.557 0 1.013.221 1.013.492s.683.493 1.518.493c.836 0 1.519.222 1.519.493s.911.492 2.025.492c1.113 0 2.024.222 2.024.493 0 .301 2.363.493 6.075.493s6.074.191 6.074.492c0 .313 3.881.493 10.63.493 6.749 0 10.63-.18 10.63-.493 0-.29 1.784-.492 4.339-.492 5.296 0 5.785.35 5.785 4.152 0 1.51.228 2.745.506 2.745.289 0 .506 1.478.506 3.449 0 1.971.218 3.449.507 3.449.281 0 .506 1.314.506 2.956s.225 2.956.506 2.956c.289 0 .506 1.478.506 3.449 0 1.97.217 3.448.506 3.448.282 0 .507 1.314.507 2.957 0 1.642.224 2.956.506 2.956.278 0 .506.443.506.985 0 .821-.338.985-2.025.985-1.113 0-2.025.222-2.025.493 0 .309-3.205.493-8.605.493-5.399 0-8.605.183-8.605.492 0 .293-1.856.493-4.556.493-2.699 0-4.556-.2-4.556-.493 0-.31-3.374-.492-9.111-.492s-9.112-.183-9.112-.493c0-.287-1.687-.493-4.049-.493-2.363 0-4.05-.205-4.05-.492 0-.271-.911-.493-2.024-.493-1.114 0-2.025-.222-2.025-.493s-.911-.492-2.025-.492c-1.114 0-2.025-.222-2.025-.493s-.683-.493-1.518-.493c-.836 0-1.519-.221-1.519-.492s-.455-.493-1.012-.493c-.557 0-1.013-.222-1.013-.493s-.683-.492-1.518-.492-1.519-.222-1.519-.493-.455-.493-1.012-.493c-.557 0-1.013-.222-1.013-.493s-.683-.492-1.518-.492-1.519-.222-1.519-.493-.455-.493-1.012-.493c-.557 0-1.013-.221-1.013-.492s-.455-.493-1.012-.493c-.557 0-1.012-.222-1.012-.493s-.456-.492-1.013-.492c-.557 0-1.012-.222-1.012-.493s-.456-.493-1.013-.493c-.556 0-1.012-.221-1.012-.492s-.455-.493-1.012-.493c-.557 0-1.013-.222-1.013-.493s-.455-.492-1.012-.492c-.557 0-1.012-.222-1.012-.493s-.456-.493-1.013-.493c-.557 0-1.012-.221-1.012-.492s-.456-.493-1.013-.493c-.556 0-1.012-.222-1.012-.493s-.456-.492-1.012-.492c-.557 0-1.013-.222-1.013-.493s-.455-.493-1.012-.493c-.557 0-1.013-.222-1.013-.493 0-.27-.455-.492-1.012-.492-.557 0-1.012-.222-1.012-.493s-.456-.493-1.013-.493c-.557 0-1.012-.221-1.012-.492s-.406-.493-.901-.493-1.229-.443-1.63-.985c-.401-.542-1.135-.986-1.63-.986-.496 0-.901-.221-.901-.492s-.456-.493-1.012-.493c-.557 0-1.013-.222-1.013-.493s-.455-.492-1.012-.492c-.557 0-1.013-.222-1.013-.493s-.405-.493-.9-.493c-.496 0-1.229-.443-1.631-.985-.401-.542-1.134-.985-1.63-.985-.495 0-.901-.222-.901-.493s-.455-.493-1.012-.493c-.557 0-1.012-.221-1.012-.492s-.406-.493-.901-.493-1.229-.444-1.63-.986c-.402-.541-1.135-.985-1.631-.985-.495 0-.9-.222-.9-.493s-.406-.492-.901-.492-1.229-.444-1.63-.986c-.402-.542-1.135-.985-1.631-.985-.495 0-.9-.222-.9-.493s-.406-.492-.901-.492-1.229-.444-1.63-.986c-.402-.542-1.135-.985-1.631-.985-.495 0-.9-.222-.9-.493s-.406-.492-.901-.492-1.229-.444-1.63-.986c-.401-.542-1.085-.985-1.519-.985-.433 0-1.117-.444-1.518-.985-.402-.542-1.135-.986-1.631-.986-.495 0-.9-.222-.9-.493 0-.27-.406-.492-.901-.492s-1.229-.444-1.63-.986c-.402-.542-1.135-.985-1.631-.985-.495 0-.9-.222-.9-.493s-.406-.492-.901-.492-1.229-.444-1.63-.986c-.402-.542-1.085-.985-1.519-.985-.433 0-1.117-.443-1.518-.985-.402-.542-1.135-.986-1.631-.986-.495 0-.9-.221-.9-.492s-.406-.493-.901-.493-1.229-.443-1.63-.985c-.402-.542-1.085-.986-1.519-.986-.434 0-1.117-.443-1.518-.985-.402-.542-1.085-.986-1.519-.986-.434 0-1.117-.443-1.519-.985-.401-.542-1.084-.985-1.518-.985-.434 0-1.117-.444-1.519-.986-.401-.542-1.135-.985-1.63-.985-.855 0-.901 1.755-.901 34.488 0 22.663.174 34.487.507 34.487.278 0 .506-.394.506-.876 0-.483.455-1.196 1.012-1.587.557-.391 1.012-1.01 1.012-1.376 0-1.006 1.311-2.073 2.545-2.073.605 0 1.737.665 2.517 1.478.78.813 1.733 1.478 2.116 1.478.384 0 1.026.444 1.428.986.401.541 1.085.985 1.518.985.434 0 1.118.443 1.519.985.401.542 1.044.986 1.427.986.384 0 1.336.665 2.116 1.478s1.733 1.478 2.116 1.478c.384 0 1.026.443 1.428.985.401.542 1.084.985 1.518.985.434 0 1.117.444 1.519.986.401.542 1.085.985 1.518.985.434 0 1.118.444 1.519.986.401.541 1.085.985 1.519.985.433 0 1.117.443 1.518.985.402.542 1.044.986 1.428.986.383 0 1.335.665 2.116 1.478.78.813 1.732 1.478 2.115 1.478.384 0 1.026.443 1.428.985.401.542 1.085.985 1.518.985.434 0 1.118.444 1.519.986.401.542 1.135.985 1.63.985.496 0 .901.222.901.493s.405.492.901.492c.495 0 1.229.444 1.63.986.401.542 1.085.985 1.519.985.433 0 1.117.444 1.518.986.402.542 1.085.985 1.519.985.434 0 1.117.443 1.518.985.402.542 1.135.986 1.631.986.495 0 .9.221.9.492s.406.493.901.493 1.229.443 1.63.985c.402.542 1.085.986 1.519.986.434 0 1.117.443 1.518.985.402.542 1.085.985 1.519.985.434 0 1.117.444 1.519.986.401.542 1.134.985 1.63.985.495 0 .901.222.901.493s.405.493.9.493c.496 0 1.229.443 1.63.985.402.542 1.135.985 1.631.985.495 0 .9.222.9.493s.406.493.901.493c.496 0 1.229.443 1.63.985.402.542 1.135.985 1.631.985.495 0 .9.222.9.493s.456.493 1.013.493c.557 0 1.012.221 1.012.492s.406.493.901.493 1.229.443 1.63.985c.402.542 1.135.986 1.631.986.495 0 .9.221.9.492s.456.493 1.012.493c.557 0 1.013.222 1.013.493s.405.492.9.492c.496 0 1.229.444 1.631.986.401.542 1.135.985 1.63.985.495 0 .901.222.901.493s.455.493 1.012.493c.557 0 1.013.221 1.013.492s.455.493 1.012.493c.557 0 1.012.222 1.012.493s.456.492 1.013.492c.557 0 1.012.222 1.012.493s.456.493 1.013.493c.556 0 1.012.221 1.012.492s.455.493 1.012.493c.557 0 1.013.222 1.013.493s.455.492 1.012.492c.557 0 1.012.222 1.012.493s.684.493 1.519.493c.835 0 1.519.221 1.519.492s.455.493 1.012.493c.557 0 1.012.222 1.012.493s.684.492 1.519.492c.835 0 1.519.222 1.519.493s.683.493 1.518.493 1.519.222 1.519.492c0 .274 1.35.493 3.037.493 1.687 0 3.037.219 3.037.493 0 .32 6.581.493 18.729.493 12.149 0 18.729-.173 18.729-.493 0-.271.456-.493 1.013-.493.877 0 1.012.329 1.012 2.464 0 1.354.228 2.463.506 2.463.282 0 .507 1.314.507 2.956s.224 2.956.506 2.956c.281 0 .506 1.314.506 2.956s.225 2.956.506 2.956c.289 0 .506 1.478.506 3.449 0 1.971.217 3.449.507 3.449.281 0 .506 1.314.506 2.956s.224 2.956.506 2.956c.281 0 .506 1.314.506 2.956v2.956h-3.543c-2.025 0-3.544.212-3.544.493 0 .32-6.58.493-18.729.493-12.148 0-18.729-.173-18.729-.493 0-.296-2.025-.493-5.062-.493-3.037 0-5.062-.197-5.062-.493 0-.271-1.139-.492-2.531-.492-1.392 0-2.531-.222-2.531-.493s-.683-.493-1.518-.493c-.836 0-1.519-.221-1.519-.492s-.683-.493-1.519-.493c-.835 0-1.518-.222-1.518-.493s-.683-.492-1.519-.492c-.835 0-1.518-.222-1.518-.493s-.456-.493-1.013-.493c-.556 0-1.012-.221-1.012-.492s-.683-.493-1.519-.493c-.835 0-1.518-.222-1.518-.493s-.456-.492-1.013-.492c-.556 0-1.012-.222-1.012-.493s-.456-.493-1.012-.493c-.557 0-1.013-.221-1.013-.492s-.455-.493-1.012-.493c-.557 0-1.013-.222-1.013-.493s-.455-.492-1.012-.492c-.557 0-1.012-.222-1.012-.493s-.456-.493-1.013-.493c-.556 0-1.012-.222-1.012-.493 0-.27-.456-.492-1.012-.492-.557 0-1.013-.222-1.013-.493s-.455-.493-1.012-.493c-.557 0-1.013-.221-1.013-.492s-.455-.493-1.012-.493c-.557 0-1.012-.222-1.012-.493s-.456-.492-1.013-.492c-.557 0-1.012-.222-1.012-.493s-.456-.493-1.013-.493c-.556 0-1.012-.221-1.012-.492s-.405-.493-.9-.493c-.496 0-1.229-.443-1.631-.985-.401-.542-1.135-.986-1.63-.986-.495 0-.901-.221-.901-.492s-.455-.493-1.012-.493c-.557 0-1.013-.222-1.013-.493s-.405-.492-.9-.492c-.496 0-1.229-.444-1.631-.986-.401-.542-1.134-.985-1.63-.985-.495 0-.901-.222-.901-.493s-.405-.493-.9-.493c-.496 0-1.229-.443-1.631-.985-.401-.542-1.134-.985-1.63-.985-.495 0-.901-.222-.901-.493s-.455-.493-1.012-.493c-.557 0-1.012-.221-1.012-.492s-.406-.493-.901-.493-1.229-.443-1.63-.985c-.402-.542-1.085-.986-1.519-.986-.434 0-1.117-.443-1.518-.985-.402-.542-1.135-.985-1.631-.985-.495 0-.9-.222-.9-.493s-.406-.493-.901-.493c-.496 0-1.229-.443-1.63-.985-.402-.542-1.085-.985-1.519-.985-.434 0-1.117-.444-1.519-.986-.401-.542-1.084-.985-1.518-.985-.434 0-1.117-.444-1.519-.986-.401-.541-1.135-.985-1.63-.985-.495 0-.901-.222-.901-.493s-.405-.492-.9-.492c-.496 0-1.229-.444-1.631-.986-.401-.542-1.084-.985-1.518-.985-.434 0-1.117-.443-1.519-.985-.401-.542-1.085-.986-1.518-.986-.434 0-1.118-.443-1.519-.985-.401-.542-1.085-.985-1.519-.985-.433 0-1.117-.444-1.518-.986-.402-.542-1.085-.985-1.519-.985-.433 0-1.117-.444-1.518-.986-.402-.541-1.085-.985-1.519-.985-.434 0-1.117-.443-1.518-.985-.402-.542-1.085-.986-1.519-.986-.434 0-1.117-.443-1.519-.985-.401-.542-1.084-.985-1.518-.985-.434 0-1.117-.444-1.519-.986-.401-.542-1.085-.985-1.518-.985-.434 0-1.118-.443-1.519-.985-.401-.542-1.085-.986-1.519-.986-.433 0-1.117-.443-1.518-.985s-.907-.985-1.124-.985c-.217 0-.395 16.406-.395 36.458s.13 36.458.289 36.458c.595 0 1.736-1.435 1.736-2.182 0-1.155 2.649-.997 3.543.211.402.542 1.085.986 1.519.986.434 0 1.117.443 1.519.985.401.542 1.084.986 1.518.986.434 0 1.117.443 1.519.985.401.542 1.085.985 1.518.985.434 0 1.118.444 1.519.986.401.542 1.085.985 1.519.985.433 0 1.117.443 1.518.985.402.542 1.085.986 1.519.986.434 0 1.117.443 1.518.985.402.542 1.085.985 1.519.985.434 0 1.117.444 1.518.986.402.542 1.135.985 1.631.985.495 0 .9.222.9.493s.406.493.901.493 1.229.443 1.63.985c.402.542 1.085.985 1.519.985.434 0 1.117.444 1.519.986.401.542 1.084.985 1.518.985.434 0 1.117.443 1.519.985.401.542 1.135.986 1.63.986.495 0 .901.221.901.492s.405.493.9.493c.496 0 1.229.443 1.631.985.401.542 1.134.986 1.63.986.495 0 .901.221.901.492s.405.493.9.493c.496 0 1.229.444 1.631.985.401.542 1.084.986 1.518.986.434 0 1.117.443 1.519.985.401.542 1.135.986 1.63.986.495 0 .901.221.901.492s.405.493.9.493c.496 0 1.229.443 1.631.985.401.542 1.135.986 1.63.986.495 0 .901.221.901.492s.405.493.9.493c.496 0 1.229.443 1.631.985.401.542 1.134.986 1.63.986.495 0 .901.221.901.492s.405.493.9.493c.496 0 1.229.443 1.631.985.401.542 1.134.986 1.63.986.495 0 .901.222.901.492 0 .271.405.493.9.493.496 0 1.229.444 1.63.986.402.541 1.135.985 1.631.985.495 0 .9.222.9.493s.456.492 1.013.492c.557 0 1.012.222 1.012.493s.456.493 1.013.493c.556 0 1.012.221 1.012.492s.405.493.901.493c.495 0 1.229.443 1.63.985.401.542 1.135.986 1.63.986.495 0 .901.221.901.492s.456.493 1.012.493c.557 0 1.013.222 1.013.493s.455.492 1.012.492c.557 0 1.012.222 1.012.493s.406.493.901.493c.496 0 1.229.443 1.63.985.402.542 1.135.985 1.631.985.495 0 .9.222.9.493s.456.493 1.013.493c.557 0 1.012.222 1.012.493s.456.492 1.013.492c.556 0 1.012.222 1.012.493s.456.493 1.012.493c.557 0 1.013.221 1.013.492s.455.493 1.012.493c.557 0 1.013.222 1.013.493s.455.492 1.012.492c.557 0 1.012.222 1.012.493s.456.493 1.013.493c.557 0 1.012.221 1.012.492s.456.493 1.012.493c.557 0 1.013.222 1.013.493s.683.492 1.518.492c.836 0 1.519.222 1.519.493s.456.493 1.012.493c.557 0 1.013.221 1.013.492s.455.493 1.012.493c.557 0 1.013.222 1.013.493s.683.492 1.518.492 1.519.222 1.519.493.683.493 1.518.493c.836 0 1.519.222 1.519.492 0 .271.911.493 2.025.493 1.113 0 2.024.222 2.024.493 0 .301 2.363.493 6.075.493s6.074.191 6.074.492c0 .313 3.881.493 10.63.493 6.749 0 10.63-.18 10.63-.493 0-.29 1.784-.492 4.339-.492 5.296 0 5.785.35 5.785 4.152 0 1.51.228 2.745.506 2.745.289 0 .506 1.478.506 3.449 0 1.971.218 3.449.507 3.449.281 0 .506 1.314.506 2.956s.225 2.956.506 2.956c.289 0 .506 1.478.506 3.449 0 1.97.217 3.448.506 3.448.282 0 .507 1.314.507 2.956s.224 2.956.506 2.956c.278 0 .506.444.506.986 0 .821-.338.985-2.025.985-1.113 0-2.025.222-2.025.493 0 .308-3.037.493-8.099.493s-8.099.184-8.099.492c0 .299-2.193.493-5.568.493-3.375 0-5.568-.194-5.568-.493 0-.309-3.206-.492-8.605-.492-5.4 0-8.606-.184-8.606-.493 0-.287-1.687-.493-4.049-.493-2.363 0-4.05-.205-4.05-.493 0-.271-.911-.492-2.024-.492-1.114 0-2.025-.222-2.025-.493s-.911-.493-2.025-.493c-1.114 0-2.025-.221-2.025-.492s-.683-.493-1.518-.493c-.836 0-1.519-.222-1.519-.493s-.455-.492-1.012-.492c-.557 0-1.013-.222-1.013-.493s-.683-.493-1.518-.493-1.519-.221-1.519-.492-.455-.493-1.012-.493c-.557 0-1.013-.222-1.013-.493s-.683-.492-1.518-.492-1.519-.222-1.519-.493-.455-.493-1.012-.493c-.557 0-1.013-.221-1.013-.492s-.455-.493-1.012-.493c-.557 0-1.012-.222-1.012-.493s-.456-.492-1.013-.492c-.557 0-1.012-.222-1.012-.493s-.456-.493-1.013-.493c-.556 0-1.012-.222-1.012-.492 0-.271-.455-.493-1.012-.493-.557 0-1.013-.222-1.013-.493s-.455-.493-1.012-.493c-.557 0-1.012-.221-1.012-.492s-.456-.493-1.013-.493c-.557 0-1.012-.222-1.012-.493s-.456-.492-1.013-.492c-.556 0-1.012-.222-1.012-.493s-.456-.493-1.012-.493c-.557 0-1.013-.221-1.013-.492s-.455-.493-1.012-.493c-.557 0-1.013-.222-1.013-.493s-.455-.492-1.012-.492c-.557 0-1.012-.222-1.012-.493s-.456-.493-1.013-.493c-.557 0-1.012-.221-1.012-.492s-.406-.493-.901-.493-1.229-.443-1.63-.985c-.401-.542-1.135-.986-1.63-.986-.496 0-.901-.221-.901-.492s-.456-.493-1.012-.493c-.557 0-1.013-.222-1.013-.493s-.455-.493-1.012-.493c-.557 0-1.013-.221-1.013-.492s-.405-.493-.9-.493c-.496 0-1.229-.443-1.631-.985-.401-.542-1.134-.986-1.63-.986-.495 0-.901-.221-.901-.492s-.405-.493-.9-.493c-.496 0-1.229-.443-1.63-.985-.402-.542-1.135-.986-1.631-.986-.495 0-.9-.221-.9-.492s-.456-.493-1.013-.493c-.557 0-1.012-.222-1.012-.493s-.406-.492-.901-.492-1.229-.444-1.63-.986c-.402-.542-1.135-.985-1.631-.985-.495 0-.9-.222-.9-.493s-.406-.492-.901-.492-1.229-.444-1.63-.986c-.402-.542-1.135-.985-1.631-.985-.495 0-.9-.222-.9-.493s-.406-.493-.901-.493-1.229-.443-1.63-.985c-.401-.542-1.135-.985-1.631-.985-.495 0-.9-.222-.9-.493s-.405-.493-.901-.493c-.495 0-1.229-.443-1.63-.985-.401-.542-1.085-.985-1.519-.985-.433 0-1.117-.444-1.518-.986-.402-.542-1.135-.985-1.631-.985-.495 0-.9-.222-.9-.493s-.406-.492-.901-.492-1.229-.444-1.63-.986c-.402-.542-1.085-.985-1.519-.985-.433 0-1.117-.444-1.518-.986-.402-.541-1.135-.985-1.631-.985-.495 0-.9-.222-.9-.493s-.406-.492-.901-.492-1.229-.444-1.63-.986c-.402-.542-1.085-.985-1.519-.985-.434 0-1.117-.443-1.518-.985-.402-.542-1.085-.986-1.519-.986-.434 0-1.117-.443-1.519-.985-.401-.542-1.084-.985-1.518-.985-.434 0-1.117-.444-1.519-.986-.401-.542-1.135-.985-1.63-.985-.862 0-.901 6.808-.901 156.672v156.672H665.139v2.464c0 1.355-.228 2.463-.507 2.463-.278 0-.506 1.109-.506 2.464s-.228 2.463-.506 2.463-.506.665-.506 1.478-.228 1.478-.506 1.478c-.279 0-.507.444-.507.986 0 .541-.227.985-.506.985-.278 0-.506.443-.506.985s-.228.986-.506.986c-.279 0-.506.443-.506.985s-.228.985-.507.985c-.278 0-.506.336-.506.746s-2.161 2.848-4.802 5.419c-2.641 2.571-5.147 4.674-5.568 4.674-.421 0-.766.222-.766.493s-.456.493-1.012.493c-.557 0-1.013.221-1.013.492s-.455.493-1.012.493c-.557 0-1.013.222-1.013.493s-.455.492-1.012.492c-.557 0-1.012.222-1.012.493s-.684.493-1.519.493c-.835 0-1.519.221-1.519.492s-.911.493-2.024.493c-1.114 0-2.025.222-2.025.493 0 .326-25.816.492-76.435.492-50.62 0-76.436-.166-76.436-.492 0-.271-1.139-.493-2.531-.493-1.392 0-2.531-.222-2.531-.493s-.683-.492-1.518-.492-1.519-.222-1.519-.493-.455-.493-1.012-.493c-.557 0-1.012-.221-1.012-.492s-.456-.493-1.013-.493c-.557 0-1.012-.222-1.012-.493s-.456-.492-1.013-.492c-.556 0-1.012-.222-1.012-.493s-.345-.493-.766-.493c-.999 0-10.37-9.121-10.37-10.093 0-.41-.228-.746-.506-.746-.279 0-.507-.443-.507-.985s-.227-.985-.506-.985c-.278 0-.506-.444-.506-.986s-.228-.985-.506-.985c-.279 0-.506-.444-.506-.985 0-.542-.228-.986-.507-.986-.278 0-.506-.665-.506-1.478s-.228-1.478-.506-1.478-.506-.887-.506-1.971-.228-1.97-.506-1.97c-.338 0-.507-99.358-.507-297.087V145.833h-16.198v292.652c0 194.773.169 292.652.506 292.652.279 0 .507.887.507 1.971s.227 1.971.506 1.971c.307 0 .506 2.135.506 5.419 0 3.285-.199 5.42-.506 5.42-.279 0-.506.887-.506 1.971 0 1.083-.228 1.97-.507 1.97-.278 0-.506.444-.506.986s-.228.985-.506.985-.506.443-.506.985-.228.986-.506.986c-.279 0-.507.394-.507.876 0 .483-.455 1.196-1.012 1.587-.557.391-1.012 1-1.012 1.353 0 .838-4.33 5.052-5.19 5.052-.364 0-.989.443-1.391.985-.401.542-1.135.986-1.63.986-.495 0-.901.221-.901.492s-.455.493-1.012.493c-.557 0-1.013.222-1.013.493s-.455.492-1.012.492c-.557 0-1.012.222-1.012.493s-.684.493-1.519.493c-.835 0-1.519.221-1.519.492s-1.138.493-2.531.493c-1.392 0-2.53.222-2.53.493 0 .326-25.816.492-76.436.492-50.619 0-76.435-.166-76.435-.492 0-.271-.911-.493-2.025-.493-1.113 0-2.025-.222-2.025-.493s-.683-.492-1.518-.492-1.519-.222-1.519-.493-.455-.493-1.012-.493c-.557 0-1.012-.221-1.012-.492s-.456-.493-1.013-.493c-.557 0-1.012-.222-1.012-.493s-.456-.492-1.013-.492c-.556 0-1.012-.222-1.012-.493s-.345-.493-.766-.493c-.999 0-10.37-9.121-10.37-10.093 0-.41-.228-.746-.506-.746-.279 0-.507-.443-.507-.985s-.227-.985-.506-.985c-.278 0-.506-.444-.506-.986s-.228-.985-.506-.985c-.279 0-.506-.444-.506-.985 0-.542-.228-.986-.507-.986-.278 0-.506-.665-.506-1.478s-.228-1.478-.506-1.478-.506-1.108-.506-2.463-.228-2.464-.506-2.464c-.336 0-.507-30.546-.507-90.653 0-60.107.171-90.653.507-90.653.278 0 .506-.887.506-1.971s.228-1.97.506-1.97.506-.666.506-1.479c0-.812.228-1.478.506-1.478.279 0 .507-.443.507-.985s.227-.985.506-.985c.278 0 .506-.444.506-.986s.228-.985.506-.985c.279 0 .506-.443.506-.985s.228-.986.507-.986c.278 0 .506-.335.506-.745 0-.972 9.371-10.094 10.37-10.094.421 0 .766-.221.766-.492s.456-.493 1.012-.493c.557 0 1.013-.222 1.013-.493s.455-.492 1.012-.492c.557 0 1.013-.222 1.013-.493s.455-.493 1.012-.493c.557 0 1.012-.221 1.012-.492s.684-.493 1.519-.493c.835 0 1.518-.222 1.518-.493s1.139-.492 2.531-.492c1.392 0 2.531-.222 2.531-.493 0-.326 23.792-.493 70.361-.493h70.361v-49.761c0-47.374-.043-49.76-.9-49.76-.496 0-1.229.443-1.631.985-.401.542-1.084.985-1.518.985-.434 0-1.117.444-1.519.986-.401.542-1.135.985-1.63.985-.495 0-.901.222-.901.493s-.405.493-.9.493c-.496 0-1.229.443-1.631.985-.401.542-1.085.985-1.518.985-.434 0-1.118.444-1.519.986-.401.542-1.135.985-1.63.985-.495 0-.901.222-.901.493s-.405.492-.9.492c-.496 0-1.23.444-1.631.986s-1.135.985-1.63.985c-.495 0-.901.222-.901.493s-.405.492-.9.492c-.496 0-1.229.444-1.631.986-.401.542-1.135.985-1.63.985-.495 0-.901.222-.901.493s-.405.493-.9.493c-.496 0-1.229.443-1.631.985-.401.542-1.135.985-1.63.985-.495 0-.901.222-.901.493s-.405.493-.9.493c-.496 0-1.229.443-1.631.985-.401.542-1.135.985-1.63.985-.495 0-.901.222-.901.493s-.405.493-.9.493c-.496 0-1.229.443-1.631.985-.401.542-1.135.985-1.63.985-.495 0-.901.222-.901.493s-.455.493-1.012.493c-.557 0-1.012.221-1.012.492s-.406.493-.901.493-1.229.444-1.63.985c-.402.542-1.135.986-1.631.986-.495 0-.9.222-.9.493s-.456.492-1.013.492c-.557 0-1.012.222-1.012.493s-.456.493-1.013.493c-.556 0-1.012.221-1.012.492s-.455.493-1.012.493c-.557 0-1.013.222-1.013.493s-.405.492-.9.492c-.496 0-1.229.444-1.631.986-.401.542-1.135.985-1.63.985-.495 0-.901.222-.901.493s-.455.492-1.012.492c-.557 0-1.012.222-1.012.493s-.456.493-1.013.493c-.557 0-1.012.221-1.012.492s-.456.493-1.013.493c-.556 0-1.012.222-1.012.493s-.456.492-1.012.492c-.557 0-1.013.222-1.013.493s-.455.493-1.012.493c-.557 0-1.012.222-1.012.493 0 .27-.456.492-1.013.492-.557 0-1.012.222-1.012.493s-.456.493-1.013.493c-.556 0-1.012.221-1.012.492s-.683.493-1.519.493c-.835 0-1.518.222-1.518.493s-.456.492-1.013.492c-.556 0-1.012.222-1.012.493s-.456.493-1.012.493c-.557 0-1.013.221-1.013.492s-.683.493-1.518.493c-.836 0-1.519.222-1.519.493s-.455.492-1.012.492c-.557 0-1.013.222-1.013.493s-.683.493-1.518.493-1.519.221-1.519.492-.683.493-1.518.493c-.836 0-1.519.222-1.519.493s-.683.492-1.519.492c-.835 0-1.518.222-1.518.493s-.911.493-2.025.493c-1.114 0-2.025.221-2.025.492 0 .288-1.687.493-4.049.493-2.363 0-4.05.206-4.05.493 0 .31-3.375.493-9.111.493-5.737 0-9.112.182-9.112.492 0 .296-2.025.493-5.062.493-3.037 0-5.062-.197-5.062-.493 0-.309-3.205-.492-8.605-.492s-8.605-.184-8.605-.493c0-.271-.684-.493-1.519-.493-1.484 0-1.518-.055-1.518-2.463 0-1.355.227-2.464.506-2.464.289 0 .506-1.478.506-3.448 0-1.971.217-3.449.506-3.449.282 0 .506-1.314.506-2.956s.225-2.956.507-2.956c.281 0 .506-1.314.506-2.956 0-1.643.224-2.957.506-2.957.289 0 .506-1.478.506-3.448 0-1.971.217-3.449.506-3.449.279 0 .507-.887.507-1.971v-1.97h5.061c3.038 0 5.062.197 5.062.492 0 .312 3.712.493 10.124.493 6.412 0 10.124-.181 10.124-.493 0-.303 2.531-.492 6.581-.492 4.049 0 6.58-.19 6.58-.493 0-.271.684-.493 1.519-.493.835 0 1.518-.222 1.518-.493 0-.27.911-.492 2.025-.492 1.114 0 2.025-.222 2.025-.493s.455-.493 1.012-.493c.557 0 1.013-.221 1.013-.492s.683-.493 1.518-.493 1.519-.222 1.519-.493.455-.492 1.012-.492c.557 0 1.013-.222 1.013-.493s.455-.493 1.012-.493c.557 0 1.012-.221 1.012-.492s.456-.493 1.013-.493c.557 0 1.012-.222 1.012-.493s.456-.492 1.013-.492c.556 0 1.012-.222 1.012-.493s.456-.493 1.012-.493c.557 0 1.013-.221 1.013-.492s.455-.493 1.012-.493c.557 0 1.012-.222 1.012-.493s.456-.492 1.013-.492c.557 0 1.012-.222 1.012-.493s.456-.493 1.013-.493c.556 0 1.012-.221 1.012-.492s.456-.493 1.012-.493c.557 0 1.013-.222 1.013-.493s.455-.493 1.012-.493c.557 0 1.013-.221 1.013-.492s.455-.493 1.012-.493c.557 0 1.012-.222 1.012-.493s.456-.492 1.013-.492c.557 0 1.012-.222 1.012-.493s.406-.493.901-.493 1.229-.443 1.63-.985c.402-.542 1.135-.985 1.631-.985.495 0 .9-.222.9-.493s.456-.493 1.012-.493c.557 0 1.013-.221 1.013-.492s.455-.493 1.012-.493c.557 0 1.013-.222 1.013-.493s.405-.492.9-.492c.496 0 1.229-.444 1.631-.986.401-.542 1.134-.985 1.63-.985.495 0 .901-.222.901-.493s.455-.492 1.012-.492c.557 0 1.012-.222 1.012-.493s.406-.493.901-.493 1.229-.443 1.63-.985c.402-.542 1.135-.986 1.631-.986.495 0 .9-.221.9-.492s.406-.493.901-.493 1.229-.443 1.63-.985c.402-.542 1.135-.986 1.631-.986.495 0 .9-.221.9-.492s.406-.493.901-.493 1.229-.443 1.63-.985c.402-.542 1.085-.986 1.519-.986.434 0 1.117-.443 1.518-.985.402-.542 1.135-.985 1.631-.985.495 0 .9-.222.9-.493s.406-.493.901-.493 1.229-.443 1.63-.985c.402-.542 1.135-.986 1.631-.986.495 0 .9-.221.9-.492s.406-.493.901-.493 1.229-.443 1.63-.985c.402-.542 1.085-.986 1.519-.986.434 0 1.117-.443 1.518-.985.402-.542 1.135-.985 1.631-.985.495 0 .9-.222.9-.493s.406-.493.901-.493 1.229-.443 1.63-.985c.402-.542 1.085-.985 1.519-.985.434 0 1.117-.444 1.518-.986.402-.542 1.135-.985 1.631-.985.495 0 .9-.222.9-.493s.406-.492.901-.492c.496 0 1.229-.444 1.63-.986.402-.542 1.085-.985 1.519-.985.434 0 1.117-.444 1.519-.986.401-.542 1.084-.985 1.518-.985.434 0 1.117-.443 1.519-.985.401-.542 1.085-.986 1.518-.986.434 0 1.117-.443 1.519-.985.401-.542 1.037-.985 1.413-.985 2.149 0 2.13.313 2.13-35.192 0-33.455-.009-33.784-1.012-33.784-.557 0-1.013.222-1.013.493s-.405.493-.9.493c-.496 0-1.229.443-1.63.985-.402.542-1.085.985-1.519.985-.434 0-1.117.444-1.519.986-.401.542-1.135.985-1.63.985-.495 0-.901.222-.901.493s-.405.493-.9.493c-.496 0-1.229.443-1.631.985-.401.542-1.084.985-1.518.985-.434 0-1.117.444-1.519.986-.401.542-1.135.985-1.63.985-.495 0-.901.222-.901.493s-.405.492-.9.492c-.496 0-1.229.444-1.631.986-.401.542-1.135.985-1.63.985-.495 0-.901.222-.901.493s-.405.492-.9.492c-.496 0-1.229.444-1.631.986-.401.542-1.135.985-1.63.985-.495 0-.901.222-.901.493s-.405.493-.9.493c-.496 0-1.229.443-1.631.985-.401.542-1.134.985-1.63.985-.495 0-.901.222-.901.493s-.405.493-.9.493c-.496 0-1.229.443-1.631.985-.401.542-1.134.985-1.63.985-.495 0-.9.222-.9.493s-.406.493-.901.493c-.496 0-1.229.443-1.63.985-.402.542-1.135.985-1.631.985-.495 0-.9.222-.9.493s-.456.493-1.013.493c-.557 0-1.012.221-1.012.492s-.456.493-1.013.493c-.556 0-1.012.222-1.012.493s-.405.492-.9.492c-.496 0-1.23.444-1.631.986s-1.135.985-1.63.985c-.495 0-.901.222-.901.493s-.455.493-1.012.493c-.557 0-1.013.221-1.013.492s-.455.493-1.012.493c-.557 0-1.012.222-1.012.493s-.456.492-1.013.492c-.557 0-1.012.222-1.012.493s-.456.493-1.013.493c-.556 0-1.012.221-1.012.492s-.405.493-.901.493c-.495 0-1.229.443-1.63.985-.401.542-1.135.986-1.63.986-.495 0-.901.221-.901.492s-.456.493-1.012.493c-.557 0-1.013.222-1.013.493s-.455.492-1.012.492c-.557 0-1.012.222-1.012.493s-.456.493-1.013.493c-.557 0-1.012.222-1.012.492 0 .271-.684.493-1.519.493-.835 0-1.518.222-1.518.493s-.456.493-1.013.493c-.557 0-1.012.221-1.012.492s-.456.493-1.013.493c-.556 0-1.012.222-1.012.493s-.456.492-1.012.492c-.557 0-1.013.222-1.013.493s-.683.493-1.518.493c-.836 0-1.519.221-1.519.492s-.455.493-1.012.493c-.557 0-1.013.222-1.013.493s-.455.492-1.012.492c-.557 0-1.012.222-1.012.493s-.684.493-1.519.493c-.835 0-1.519.221-1.519.492s-.683.493-1.518.493-1.519.222-1.519.493-.911.492-2.025.492c-1.113 0-2.024.222-2.024.493s-1.139.493-2.531.493c-1.392 0-2.531.221-2.531.492 0 .296-2.025.493-5.062.493-3.037 0-5.062.197-5.062.493 0 .32-6.581.493-18.729.493-12.149 0-18.729-.173-18.729-.493 0-.281-1.519-.493-3.544-.493h-3.543v-1.478c0-.813.228-1.478.506-1.478.281 0 .506-1.314.506-2.956s.225-2.956.506-2.956c.282 0 .507-1.314.507-2.956s.224-2.956.506-2.956c.289 0 .506-1.478.506-3.449 0-1.971.217-3.449.506-3.449.282 0 .506-1.314.506-2.956s.225-2.956.507-2.956c.281 0 .506-1.314.506-2.956s.224-2.956.506-2.956c.278 0 .506-.444.506-.985 0-.542.228-.986.506-.986.279 0 .507.222.507.493 0 .32 6.749.493 19.235.493s19.235-.173 19.235-.493c0-.274 1.35-.493 3.037-.493 1.688 0 3.038-.219 3.038-.493 0-.27.683-.492 1.518-.492s1.519-.222 1.519-.493.683-.493 1.518-.493c.836 0 1.519-.221 1.519-.492s.455-.493 1.012-.493c.557 0 1.013-.222 1.013-.493s.683-.492 1.518-.492 1.519-.222 1.519-.493.455-.493 1.012-.493c.557 0 1.013-.221 1.013-.492s.455-.493 1.012-.493c.557 0 1.012-.222 1.012-.493s.456-.492 1.013-.492c.557 0 1.012-.222 1.012-.493s.456-.493 1.013-.493c.556 0 1.012-.221 1.012-.492s.456-.493 1.012-.493c.557 0 1.013-.222 1.013-.493s.455-.492 1.012-.492c.557 0 1.012-.222 1.012-.493s.456-.493 1.013-.493c.557 0 1.012-.222 1.012-.492 0-.271.456-.493 1.013-.493.556 0 1.012-.222 1.012-.493s.456-.493 1.012-.493c.557 0 1.013-.221 1.013-.492s.455-.493 1.012-.493c.557 0 1.013-.222 1.013-.493s.455-.492 1.012-.492c.557 0 1.012-.222 1.012-.493s.406-.493.901-.493 1.229-.443 1.63-.985c.402-.542 1.135-.985 1.631-.985.495 0 .9-.222.9-.493s.456-.493 1.013-.493c.556 0 1.012-.221 1.012-.492s.456-.493 1.012-.493c.557 0 1.013-.222 1.013-.493s.405-.492.9-.492c.496 0 1.229-.444 1.631-.986.401-.542 1.135-.985 1.63-.985.495 0 .901-.222.901-.493s.405-.492.9-.492c.496 0 1.229-.444 1.631-.986.401-.542 1.135-.985 1.63-.985.495 0 .901-.222.901-.493s.405-.493.9-.493c.496 0 1.229-.443 1.631-.985.401-.542 1.135-.985 1.63-.985.495 0 .901-.222.901-.493s.405-.493.9-.493c.496 0 1.229-.443 1.631-.985.401-.542 1.135-.985 1.63-.985.495 0 .901-.222.901-.493s.455-.493 1.012-.493c.557 0 1.012-.221 1.012-.492s.406-.493.901-.493 1.229-.443 1.63-.985c.402-.542 1.085-.986 1.519-.986.434 0 1.117-.443 1.518-.985.402-.542 1.135-.986 1.631-.986.495 0 .9-.221.9-.492s.406-.493.901-.493c.496 0 1.229-.443 1.63-.985.402-.542 1.085-.986 1.519-.986.434 0 1.117-.443 1.519-.985.401-.542 1.134-.985 1.63-.985.495 0 .901-.222.901-.493s.405-.493.9-.493c.496 0 1.229-.443 1.631-.985.401-.542 1.084-.985 1.518-.985.434 0 1.117-.444 1.519-.986.401-.542 1.135-.985 1.63-.985.495 0 .901-.222.901-.493s.364-.492.809-.492c.445 0 1.448-.666 2.228-1.479.78-.812 1.783-1.478 2.228-1.478.445 0 .809-.221.809-.492s.405-.493.9-.493c.496 0 1.23-.443 1.631-.985s1.085-.986 1.519-.986c.433 0 1.117-.443 1.518-.985.402-.542 1.085-.985 1.519-.985.434 0 1.117-.444 1.518-.986.402-.542 1.135-.985 1.631-.985.854 0 .9-1.653.9-32.024 0-21.021-.174-32.025-.506-32.025a.501.501 0 00-.506.493c0 .271-.406.493-.901.493s-1.229.443-1.63.985c-.402.542-1.135.986-1.631.986-.495 0-.9.221-.9.492s-.406.493-.901.493-1.229.443-1.63.985c-.401.542-1.085.986-1.519.986-.433 0-1.117.443-1.518.985-.402.542-1.135.985-1.631.985-.495 0-.9.222-.9.493s-.406.493-.901.493-1.229.443-1.63.985c-.402.542-1.085.985-1.519.985-.434 0-1.117.444-1.518.986-.402.542-1.135.985-1.631.985-.495 0-.9.222-.9.493s-.406.493-.901.493-1.229.443-1.63.985c-.402.542-1.135.985-1.631.985-.495 0-.9.222-.9.493s-.406.493-.901.493-1.229.443-1.63.985c-.402.542-1.135.985-1.631.985-.495 0-.9.222-.9.493s-.406.493-.901.493-1.229.443-1.63.985c-.402.542-1.135.985-1.631.985-.495 0-.9.222-.9.493s-.406.493-.901.493-1.229.443-1.63.985c-.401.542-1.135.985-1.631.985-.495 0-.9.222-.9.493s-.456.493-1.012.493c-.557 0-1.013.222-1.013.493s-.405.492-.9.492c-.496 0-1.229.444-1.631.986-.401.542-1.135.985-1.63.985-.495 0-.901.222-.901.493s-.405.492-.9.492c-.496 0-1.229.444-1.631.986-.401.542-1.135.985-1.63.985-.495 0-.901.222-.901.493s-.455.492-1.012.492c-.557 0-1.012.222-1.012.493s-.456.493-1.013.493c-.557 0-1.012.221-1.012.492s-.456.493-1.013.493c-.556 0-1.012.222-1.012.493s-.405.492-.901.492c-.495 0-1.229.444-1.63.986-.401.542-1.135.985-1.63.985-.495 0-.901.222-.901.493s-.456.493-1.012.493c-.557 0-1.013.221-1.013.492s-.455.493-1.012.493c-.557 0-1.012.222-1.012.493s-.456.492-1.013.492c-.557 0-1.012.222-1.012.493s-.456.493-1.013.493c-.556 0-1.012.221-1.012.492s-.456.493-1.012.493c-.557 0-1.013.222-1.013.493s-.455.492-1.012.492c-.557 0-1.013.222-1.013.493s-.455.493-1.012.493c-.557 0-1.012.221-1.012.492s-.684.493-1.519.493c-.835 0-1.519.222-1.519.493s-.455.492-1.012.492c-.557 0-1.012.222-1.012.493s-.456.493-1.013.493c-.556 0-1.012.221-1.012.492s-.683.493-1.519.493c-.835 0-1.518.222-1.518.493s-.456.493-1.013.493c-.556 0-1.012.221-1.012.492s-.683.493-1.519.493c-.835 0-1.518.222-1.518.493s-.684.492-1.519.492c-.835 0-1.518.222-1.518.493s-.684.493-1.519.493c-.835 0-1.518.221-1.518.492s-.912.493-2.025.493c-1.114 0-2.025.222-2.025.493 0 .287-1.687.492-4.05.492-2.362 0-4.049.206-4.049.493 0 .31-3.375.493-9.112.493-5.736 0-9.111.182-9.111.492 0 .296-2.025.493-5.062.493-3.037 0-5.062-.197-5.062-.493 0-.309-3.206-.492-8.605-.492-5.4 0-8.606-.184-8.606-.493 0-.271-.683-.493-1.518-.493-1.485 0-1.519-.054-1.519-2.463 0-1.355.228-2.463.506-2.463.289 0 .507-1.479.507-3.449 0-1.971.217-3.449.506-3.449.281 0 .506-1.314.506-2.956s.225-2.956.506-2.956c.282 0 .506-1.314.506-2.956s.225-2.956.507-2.956c.289 0 .506-1.478.506-3.449 0-1.971.217-3.449.506-3.449.278 0 .506-.887.506-1.971v-1.97h5.062c3.037 0 5.062.197 5.062.492 0 .313 3.881.493 10.63.493 6.749 0 10.63-.18 10.63-.493 0-.301 2.363-.492 6.075-.492 3.711 0 6.074-.192 6.074-.493 0-.271.911-.493 2.025-.493 1.113 0 2.024-.221 2.024-.492s.456-.493 1.013-.493c.557 0 1.012-.222 1.012-.493s.684-.492 1.519-.492c.835 0 1.518-.222 1.518-.493s.684-.493 1.519-.493c.835 0 1.519-.221 1.519-.492s.455-.493 1.012-.493c.557 0 1.012-.222 1.012-.493s.456-.492 1.013-.492c.556 0 1.012-.222 1.012-.493s.456-.493 1.012-.493c.557 0 1.013-.222 1.013-.493 0-.27.455-.492 1.012-.492.557 0 1.013-.222 1.013-.493s.455-.493 1.012-.493c.557 0 1.012-.221 1.012-.492s.456-.493 1.013-.493c.557 0 1.012-.222 1.012-.493s.456-.492 1.013-.492c.556 0 1.012-.222 1.012-.493s.456-.493 1.012-.493c.557 0 1.013-.221 1.013-.492s.455-.493 1.012-.493c.557 0 1.012-.222 1.012-.493s.456-.492 1.013-.492c.557 0 1.012-.222 1.012-.493s.456-.493 1.013-.493c.556 0 1.012-.221 1.012-.492s.456-.493 1.012-.493c.557 0 1.013-.222 1.013-.493s.405-.492.9-.492c.496 0 1.229-.444 1.631-.986.401-.542 1.135-.985 1.63-.985.495 0 .901-.222.901-.493s.455-.493 1.012-.493c.557 0 1.013-.221 1.013-.492s.455-.493 1.012-.493c.557 0 1.012-.222 1.012-.493s.406-.492.901-.492 1.229-.444 1.63-.986c.402-.542 1.135-.985 1.631-.985.495 0 .9-.222.9-.493s.406-.492.901-.492 1.229-.444 1.63-.986c.402-.542 1.135-.985 1.631-.985.495 0 .9-.222.9-.493s.456-.492 1.013-.492c.556 0 1.012-.222 1.012-.493s.405-.493.9-.493c.496 0 1.229-.443 1.631-.985.401-.542 1.135-.985 1.63-.985.495 0 .901-.222.901-.493s.405-.493.9-.493c.496 0 1.229-.443 1.631-.985.401-.542 1.085-.986 1.518-.986.434 0 1.118-.443 1.519-.985.401-.542 1.135-.985 1.63-.985.496 0 .901-.222.901-.493s.405-.493.9-.493c.496 0 1.23-.443 1.631-.985s1.135-.985 1.63-.985c.495 0 .901-.222.901-.493s.405-.493.9-.493c.496 0 1.229-.443 1.631-.985.401-.542 1.085-.985 1.518-.985.434 0 1.118-.444 1.519-.986.401-.542 1.135-.985 1.63-.985.496 0 .901-.222.901-.493s.405-.493.901-.493c.495 0 1.229-.443 1.63-.985.401-.542 1.085-.985 1.519-.985.433 0 1.117-.444 1.518-.986.402-.542 1.135-.985 1.631-.985.495 0 .9-.222.9-.493s.406-.492.901-.492 1.229-.444 1.63-.986c.401-.542 1.085-.985 1.519-.985.433 0 1.117-.443 1.518-.985.402-.542 1.085-.986 1.519-.986.434 0 1.117-.443 1.518-.985.402-.542 1.085-.985 1.519-.985.434 0 1.117-.444 1.519-.986.401-.542 1.084-.985 1.518-.985.434 0 1.117-.444 1.519-.986.401-.542 1.085-.985 1.518-.985.434 0 1.117-.443 1.519-.985.401-.542 1.037-.986 1.413-.986 2.133 0 2.13.038 2.13-30.757v-29.35h89.09v30.054zM631.73 540.47c0 .271.911.493 2.025.493 1.113 0 2.024.222 2.024.493s.684.492 1.519.492c.835 0 1.518.222 1.518.493s.456.493 1.013.493c.557 0 1.012.221 1.012.492s.456.493 1.013.493c.556 0 1.012.222 1.012.493s.456.492 1.012.492c.557 0 1.013.222 1.013.493s.344.493.766.493c.998 0 10.37 9.121 10.37 10.093 0 .41.228.746.506.746.279 0 .506.443.506.985s.228.985.507.985c.278 0 .506.444.506.986s.228.985.506.985.506.443.506.985.228.986.506.986c.279 0 .507.665.507 1.478s.227 1.478.506 1.478c.278 0 .506 1.108.506 2.463s.228 2.464.506 2.464c.279 0 .506 1.108.506 2.463v2.463H536.565v98.537h125.536v2.463c0 1.355-.227 2.463-.506 2.463-.278 0-.506 1.109-.506 2.464s-.228 2.463-.506 2.463c-.279 0-.506.665-.506 1.478s-.228 1.478-.507 1.478c-.278 0-.506.444-.506.986 0 .541-.228.985-.506.985s-.506.443-.506.985-.228.986-.506.986c-.279 0-.507.443-.507.985s-.227.985-.506.985c-.278 0-.506.336-.506.746s-2.161 2.848-4.802 5.419c-2.642 2.571-5.147 4.674-5.568 4.674-.422 0-.766.222-.766.493s-.456.493-1.013.493c-.556 0-1.012.221-1.012.492s-.456.493-1.012.493c-.557 0-1.013.222-1.013.493s-.455.492-1.012.492c-.557 0-1.013.222-1.013.493s-.683.493-1.518.493-1.519.221-1.519.492-.911.493-2.024.493c-1.114 0-2.025.222-2.025.493 0 .325-17.042.492-50.113.492-33.072 0-50.114-.167-50.114-.492 0-.271-1.139-.493-2.531-.493-1.392 0-2.531-.222-2.531-.493s-.683-.492-1.518-.492-1.519-.222-1.519-.493-.455-.493-1.012-.493c-.557 0-1.012-.221-1.012-.492s-.456-.493-1.013-.493c-.557 0-1.012-.222-1.012-.493s-.456-.492-1.013-.492c-.556 0-1.012-.222-1.012-.493s-.345-.493-.766-.493c-.999 0-10.37-9.121-10.37-10.093 0-.41-.228-.746-.506-.746-.279 0-.507-.443-.507-.985s-.227-.985-.506-.985c-.278 0-.506-.444-.506-.986s-.228-.985-.506-.985c-.279 0-.506-.444-.506-.985 0-.542-.228-.986-.507-.986-.278 0-.506-.665-.506-1.478s-.228-1.478-.506-1.478-.506-1.108-.506-2.463-.228-2.464-.506-2.464c-.335 0-.507-18.393-.507-54.195 0-35.801.172-54.194.507-54.194.278 0 .506-1.109.506-2.464s.228-2.463.506-2.463.506-.665.506-1.478.228-1.478.506-1.478c.279 0 .507-.444.507-.986s.227-.985.506-.985c.278 0 .506-.443.506-.985s.228-.986.506-.986c.279 0 .506-.443.506-.985s.228-.985.507-.985c.278 0 .506-.336.506-.746 0-.972 9.371-10.093 10.37-10.093.421 0 .766-.222.766-.493s.456-.493 1.012-.493c.557 0 1.013-.221 1.013-.492s.455-.493 1.012-.493c.557 0 1.013-.222 1.013-.493s.455-.492 1.012-.492c.557 0 1.012-.222 1.012-.493s.684-.493 1.519-.493c.835 0 1.518-.221 1.518-.492s.912-.493 2.025-.493c1.114 0 2.025-.222 2.025-.493 0-.325 17.211-.493 50.619-.493 33.409 0 50.62.168 50.62.493zM262.208 648.86v85.233h135.66V563.626h-135.66v85.234z" stroke="#000" stroke-width="4" mask="url(#a)"/></svg>