<?xml version="1.0" encoding="UTF-8"?>
<svg enable-background="new 0 0 134.2 187.5" version="1.1" viewBox="0 0 134.2 187.5" xml:space="preserve" xmlns="http://www.w3.org/2000/svg">
<style type="text/css">
  svg{background:transparent;}
	.st0{fill:#FFF;}
	.st1{fill:#FFF;}
  path{stroke: #000;stroke-width: 1px;}
</style>
		<path class="st0" d="m0 93.7v-80c0-0.9 0.2-1.5 0.9-2.1 4.3-3.7 8.4-7.5 12.7-11.2 0.4-0.3 1-0.4 1.5-0.4h81.6 23.9c0.9 0 1.5 0.3 2 0.9 3.7 4.1 7.4 8.2 11 12.3 0.4 0.4 0.6 1.1 0.6 1.7v18 138.8c0 1-0.3 1.6-0.9 2.3-3.7 3.8-7.6 7.5-11.1 11.5-1.4 1.6-2.8 2-4.8 2-33.1-0.1-66.2 0-99.2 0-1.5 0-2.7-0.4-3.9-1.4-4.4-3.4-8.8-6.7-13.2-10-0.7-0.6-1.1-1.1-1.1-2.1v-80.3zm8.5 0.1v48 28.3c0 0.6 0.2 1.3 0.6 1.6 2.9 2.3 5.9 4.5 8.9 6.7 0.5 0.3 1.1 0.6 1.7 0.6h96.1c0.5 0 1.1-0.3 1.5-0.7 2.5-2.5 4.9-5.1 7.5-7.6 0.7-0.7 1-1.4 1-2.4v-146-4.4c0-0.5-0.2-1.1-0.6-1.5-2.2-2.5-4.4-5-6.6-7.4-0.3-0.3-0.9-0.5-1.4-0.5h-99.2c-0.5 0-1 0.2-1.4 0.5l-7.2 6.3c-0.7 0.6-0.9 1.2-0.9 2.1v76.4z"/>
		<path class="st1" d="m8.5 93.8v-76.4c0-0.9 0.2-1.5 0.9-2.1l7.2-6.3c0.4-0.3 0.9-0.5 1.4-0.5h99.2c0.5 0 1.1 0.2 1.4 0.5 2.3 2.4 4.5 4.9 6.6 7.4 0.3 0.4 0.5 1 0.6 1.5 0.1 1.5 0 3 0 4.4v146c0 1-0.3 1.7-1 2.4-2.5 2.5-4.9 5.1-7.5 7.6-0.4 0.4-1 0.7-1.5 0.7h-96.1c-0.6 0-1.2-0.3-1.7-0.6-3-2.2-5.9-4.4-8.9-6.7-0.4-0.3-0.6-1.1-0.6-1.6v-28.3-48zm68.4-31.8c0.5 0.3 0.8 0.5 1.1 0.7l15.3 9.6c5.6 3.5 11.7 4.9 18.3 4.4 1.4-0.1 2.7-0.2 4.2-0.4-0.5-2.9-0.9-5.6-1.3-8.3-0.6 0-0.9 0.1-1.3 0.1-5.3 0.4-10.4 0.2-15.1-2.8-3.8-2.4-7.6-4.6-11.4-7-2.9-1.8-5.6-3.8-8.5-5.7-0.4 0.5-0.8 0.9-1.2 1.4v-17.1c0.3 0.2 0.5 0.2 0.6 0.3 5.2 3.1 10.3 6.3 15.5 9.3 4.4 2.5 8.8 4.9 14.1 4.9h9.8c-0.5-3.1-0.9-5.8-1.3-8.4-2.1 0-4-0.1-6 0-3.4 0.1-6.5-0.8-9.5-2.3-7.4-3.8-14.5-8.3-21.5-12.9-0.6-0.4-1.1-0.7-1.8 0.4v-14.8h-20.9v13.1c0 0.8-0.2 1.3-0.9 1.7-6.5 3.9-12.9 7.9-19.4 11.7-2.3 1.3-4.7 2.7-7.4 2.8-3.1 0.1-6.3 0-9.5 0-0.4 2.9-0.9 5.6-1.3 8.7h6.8c3-0.1 6.1-0.1 9-1.2 5.5-2.1 10.6-5.1 15.6-8.1 2.3-1.4 4.6-2.8 7-4.3 0.1 0.3 0.1 0.4 0.1 0.5v14.5c0 0.4-0.4 0.9-0.7 1.1l-15.6 9.6c-5.7 3.6-11.5 5.5-18.1 4.7-0.6-0.1-1.2-0.1-1.8-0.1-0.4 2.8-0.9 5.5-1.3 8.3 1.4 0.1 2.7 0.3 4 0.3 4.3 0.1 8.6 0.3 12.6-1.5 4.6-2.2 9.1-4.6 13.5-7 2.4-1.3 4.7-2.9 7.2-4.4 0 0.6 0.1 0.9 0.1 1.3v14.4c0 0.9-0.3 1.4-1 1.8-6 3.6-11.9 7.2-17.9 10.7-3.6 2.1-7.4 3.3-11.6 3-1.7-0.1-3.4 0-5.2 0-0.4 2.6-0.8 5.3-1.3 8.2 1.8 0.1 3.3 0.3 4.9 0.3 4.1 0 8.3 0.2 12.1-1.7 5.1-2.7 10.1-5.5 15.1-8.2 1.6-0.9 3.1-1.9 4.8-2.9v24.5h-1.5-30.4c-4.9 0-8.8 3.6-8.8 8.4-0.1 13.9-0.1 27.8 0 41.8 0 4.6 3.7 8.4 8.3 8.4 11.4 0.1 22.7 0.1 34.1 0 5.2 0 8.6-4.8 7-9.2-0.1-0.4-0.1-0.9-0.1-1.3v-140-1.3h4v1.5 140.8 1.2c0.1 4.6 3.8 8.3 8.3 8.4 11.3 0.1 22.6 0.1 34 0 4.7 0 8.5-4.1 8.3-8.5h-42v-76.5c0.3 0.1 0.4 0.2 0.5 0.3 5.2 3.1 10.3 6.2 15.5 9.3 5.6 3.3 11.6 5.6 18.3 5.1 1.9-0.1 3.7-0.2 5.6-0.3-0.5-2.9-0.9-5.6-1.3-8.4-0.5 0-0.9 0.1-1.3 0.1-5.5 0.4-10.9 0-15.8-3.1-6.5-4.1-13.1-7.9-19.7-11.9-0.5-0.3-1.1-0.3-1.9-0.5v-17.5zm41.4 64.6c0.3-4.5-3.7-8.5-8.5-8.5h-21c-4.7 0-8.5 3.8-8.6 8.5-0.1 8-0.1 16.1 0 24.1 0 4.6 3.7 8.4 8.4 8.5 7.2 0.1 14.3 0.1 21.5 0 4.6 0 8.4-3.9 8.3-8.4h-29.6v-24.1c9.8-0.1 19.7-0.1 29.5-0.1z"/>
		<path class="st0" d="m76.9 62v17.4c0.7 0.2 1.4 0.2 1.9 0.5 6.6 3.9 13.2 7.8 19.7 11.9 4.9 3.1 10.2 3.5 15.8 3.1 0.4 0 0.9-0.1 1.3-0.1 0.4 2.8 0.9 5.5 1.3 8.4-1.9 0.1-3.8 0.1-5.6 0.3-6.7 0.5-12.6-1.7-18.3-5.1-5.2-3.1-10.4-6.2-15.5-9.3-0.1-0.1-0.3-0.1-0.5-0.3v76.5h42c0.3 4.4-3.6 8.5-8.3 8.5-11.3 0.1-22.6 0.1-34 0-4.6 0-8.2-3.8-8.3-8.4v-1.2-140.8-1.5h-4v1.3 140c0 0.4 0 0.9 0.1 1.3 1.6 4.4-1.8 9.2-7 9.2-11.4 0.1-22.7 0.1-34.1 0-4.6 0-8.3-3.8-8.3-8.4 0-13.9-0.1-27.8 0-41.8 0-4.8 3.9-8.4 8.8-8.4h30.4 1.5v-24.5c-1.6 1-3.2 2-4.8 2.9-5 2.7-10 5.5-15.1 8.1-3.8 1.9-8 1.8-12.1 1.7-1.6 0-3.2-0.2-4.9-0.3 0.4-2.9 0.9-5.6 1.3-8.2 1.8 0 3.5-0.1 5.2 0 4.2 0.3 8-0.9 11.6-3 6-3.5 11.9-7.1 17.9-10.7 0.7-0.4 1-0.9 1-1.8v-14.4c0-0.4 0-0.8-0.1-1.3-2.5 1.5-4.8 3.1-7.2 4.4-4.5 2.4-8.9 4.9-13.5 7-4 1.9-8.3 1.6-12.6 1.5-1.3 0-2.5-0.2-4-0.3 0.4-2.8 0.9-5.5 1.3-8.3 0.6 0 1.2 0.1 1.8 0.1 6.6 0.8 12.4-1.1 17.9-4.5l15.6-9.6c0.3-0.2 0.7-0.7 0.7-1.1v-14.5c0-0.1-0.1-0.3-0.1-0.5-2.4 1.5-4.6 2.9-7 4.3-5.1 3-10.1 6-15.6 8.1-2.9 1.1-5.9 1.1-9 1.2-2.2 0.1-4.4 0-6.8 0 0.5-3.1 0.9-5.8 1.3-8.7 3.2 0 6.3 0.1 9.5 0 2.7-0.1 5.1-1.5 7.4-2.8 6.5-3.8 12.9-7.8 19.4-11.7 0.7-0.4 0.9-0.9 0.9-1.7v-13.1h20.9v14.8c0.7-1.1 1.2-0.8 1.8-0.4 7 4.6 14 9.1 21.5 12.9 3 1.5 6.1 2.4 9.5 2.3 1.9-0.1 3.9 0 6 0 0.4 2.6 0.8 5.3 1.3 8.4h-9.8c-5.2-0.1-9.7-2.4-14.1-4.9-5.3-3-10.4-6.2-15.5-9.3-0.2-0.1-0.3-0.2-0.6-0.3v17.1c0.5-0.5 0.8-1 1.2-1.4 2.8 1.9 5.6 3.9 8.5 5.7 3.8 2.4 7.6 4.6 11.4 7 4.7 3 9.8 3.3 15.1 2.8 0.4 0 0.8-0.1 1.3-0.1 0.4 2.7 0.9 5.4 1.3 8.3-1.5 0.1-2.8 0.3-4.2 0.4-6.5 0.4-12.7-0.9-18.3-4.4l-15.3-9.6c-0.1-0.3-0.4-0.5-0.9-0.7zm-21.1 103.4v-41.6h-32.2v41.6h32.2z"/>
		<path class="st0" d="m118.3 126.6h-29.6v24.1h29.6c0.1 4.5-3.7 8.4-8.3 8.4-7.2 0.1-14.3 0.1-21.5 0-4.6 0-8.3-3.8-8.4-8.5-0.1-8-0.1-16.1 0-24.1 0-4.7 3.8-8.5 8.6-8.5h21c4.8 0.1 8.8 4.1 8.6 8.6z"/>
		<path class="st1" d="m55.8 165.4h-32.2v-41.6h32.2v41.6z"/>
</svg>
