
<?xml version="1.0" standalone="no"?>
<!DOCTYPE svg PUBLIC "-//W3C//DTD SVG 20010904//EN"
 "http://www.w3.org/TR/2001/REC-SVG-20010904/DTD/svg10.dtd">
<svg version="1.0" xmlns="http://www.w3.org/2000/svg"
 width="300.000000pt" height="300.000000pt" viewBox="0 0 300.000000 300.000000"
 preserveAspectRatio="xMidYMid meet">
<metadata>
Created by potrace 1.10, written by Peter Selinger 2001-2011
</metadata>
<g transform="translate(0.000000,300.000000) scale(0.100000,-0.100000)"
fill="#fff" stroke="none">
<path d="M722 2827 c-42 -23 -190 -163 -200 -187 -6 -15 -10 -471 -11 -1163
l-1 -1137 27 -23 c14 -12 43 -36 62 -53 20 -17 52 -41 71 -54 19 -13 37 -27
40 -31 3 -3 19 -13 35 -22 26 -13 124 -15 761 -16 l730 -1 112 114 c107 110
112 116 112 158 1 79 1 1699 0 1953 l0 250 -41 50 c-22 28 -68 78 -101 112
l-60 63 -758 -1 c-559 0 -762 -4 -778 -12z m1621 -114 l87 -97 0 -1121 0
-1120 -96 -102 -96 -103 -735 0 -735 0 -114 86 -114 87 0 1146 0 1146 98 87
97 87 761 0 760 1 87 -97z"/>
<path d="M721 2638 l-60 -53 -1 -1092 0 -1093 73 -55 74 -55 689 0 690 0 62
63 62 63 0 1077 0 1078 -52 60 -52 59 -713 0 -712 0 -60 -52z m1516 -22 l43
-47 0 -112 c0 -62 1 -543 1 -1070 l0 -958 -23 -27 c-12 -15 -37 -39 -54 -54
l-32 -28 -676 -1 c-512 0 -681 3 -698 12 -38 20 -118 91 -113 100 3 4 5 489 5
1077 l0 1069 48 41 c27 22 62 42 78 44 16 2 333 2 704 2 l674 -2 43 -46z"/>
<path d="M1317 2632 c-13 -14 -17 -39 -17 -109 l0 -91 -82 -53 c-45 -29 -121
-73 -167 -98 -77 -40 -93 -45 -168 -49 -45 -3 -87 -10 -92 -16 -5 -6 -14 -35
-20 -65 -11 -50 -10 -56 10 -77 20 -22 28 -23 106 -19 106 5 160 24 295 102
59 35 109 63 112 63 8 0 8 -134 0 -154 -3 -9 -10 -16 -14 -16 -5 0 -44 -22
-87 -49 -44 -27 -112 -65 -152 -85 -64 -33 -82 -37 -146 -37 -91 0 -103 -11
-107 -94 -3 -54 -1 -60 22 -73 18 -9 49 -12 110 -8 110 7 172 30 302 113 37
24 69 43 72 43 4 0 6 -38 6 -85 l0 -85 -72 -47 c-112 -72 -234 -134 -270 -138
-18 -2 -57 -4 -85 -4 -62 -1 -78 -19 -85 -92 -8 -73 4 -81 114 -81 101 1 143
13 251 71 85 46 100 55 115 69 7 6 18 12 23 12 5 0 9 -57 9 -130 0 -117 -2
-130 -17 -130 -10 0 -115 -2 -233 -3 -233 -3 -246 -5 -290 -60 -24 -31 -25
-36 -33 -267 -4 -129 -6 -284 -3 -343 5 -98 8 -112 33 -147 16 -22 40 -44 55
-51 19 -8 120 -12 310 -12 l281 -1 41 45 41 45 41 -43 41 -43 119 -1 c65 -1
197 -1 292 -1 165 0 173 1 201 24 16 13 38 39 50 58 17 30 18 40 8 60 l-13 25
-279 3 c-208 2 -281 5 -287 15 -4 6 -8 34 -8 60 l0 49 27 -33 c45 -53 75 -60
269 -60 160 0 178 2 209 21 65 40 97 127 55 150 -13 7 -89 10 -203 10 l-182
-2 -3 142 -3 141 190 -2 c205 -3 221 1 221 48 0 35 -30 81 -67 104 -28 18 -54
21 -208 24 -198 4 -230 -3 -277 -58 l-27 -32 1 213 2 212 20 -15 c12 -8 28
-18 36 -22 8 -4 31 -16 50 -28 35 -22 181 -99 190 -101 3 0 16 -4 30 -7 14 -4
62 -8 107 -11 100 -5 123 7 122 62 -1 40 -8 67 -25 95 -9 15 -25 19 -90 21
-72 2 -88 6 -162 44 -45 23 -127 71 -181 106 l-98 64 0 86 c0 86 0 86 21 71
64 -46 140 -93 209 -127 65 -32 90 -39 155 -43 94 -5 140 2 151 24 11 19 -4
120 -19 135 -6 6 -51 13 -99 16 -95 6 -112 14 -306 138 -113 72 -114 74 -114
154 l0 69 37 -22 c20 -13 48 -30 62 -40 44 -30 184 -97 227 -108 23 -6 78 -12
122 -14 104 -3 116 8 107 86 -11 82 -18 88 -111 90 -72 2 -88 6 -162 44 -82
42 -232 133 -265 161 -15 12 -18 31 -18 97 0 115 0 115 -177 115 -123 0 -142
-2 -156 -18z m305 -118 c-2 -73 0 -104 7 -99 6 3 59 -24 117 -60 58 -37 142
-85 186 -108 74 -39 86 -42 158 -42 l79 0 9 -55 c6 -30 8 -57 5 -60 -3 -3 -47
-5 -98 -4 -82 1 -100 5 -161 33 -77 36 -271 148 -280 162 -17 28 -24 -3 -24
-112 0 -96 3 -119 13 -111 9 7 42 -10 121 -63 60 -40 142 -89 181 -109 64 -32
81 -36 148 -36 73 0 77 -1 77 -22 0 -13 3 -40 7 -61 l6 -39 -99 4 c-89 3 -106
7 -174 39 -41 20 -115 62 -165 95 -49 32 -96 63 -102 67 -10 6 -13 -21 -13
-123 0 -85 4 -129 10 -125 5 3 58 -24 117 -61 59 -37 143 -86 187 -108 72 -36
87 -40 157 -41 l78 0 9 -55 c6 -30 8 -57 5 -60 -3 -3 -47 -5 -98 -4 -88 1 -99
3 -179 42 -46 22 -128 68 -181 101 -54 34 -99 61 -101 61 -2 0 -4 -243 -4
-540 l0 -541 300 3 c332 3 320 6 280 -60 -35 -57 -60 -62 -341 -62 -286 0
-305 4 -340 71 -19 38 -19 62 -17 1054 l3 1015 -28 0 -27 0 0 -1035 c1 -744
-2 -1041 -10 -1056 -24 -43 -63 -49 -331 -49 -274 0 -299 4 -336 58 -16 25
-18 55 -18 357 0 311 1 332 20 359 34 51 62 56 320 56 l235 0 0 170 c0 94 -2
170 -4 170 -2 0 -53 -29 -112 -65 -148 -89 -199 -107 -306 -109 -47 0 -89 1
-92 4 -3 3 -2 30 1 60 l5 55 82 0 c77 0 85 3 171 48 49 27 127 71 172 100 l83
52 0 118 c0 64 -2 117 -4 117 -3 0 -42 -23 -88 -52 -46 -28 -117 -67 -158 -87
-67 -31 -86 -35 -179 -39 l-104 -4 6 23 c3 13 9 41 12 62 l7 37 72 0 c63 0 82
5 153 39 45 22 126 68 182 102 l101 63 0 114 0 113 -42 -29 c-73 -49 -221
-131 -268 -148 -44 -15 -212 -25 -224 -13 -4 3 -4 30 0 60 l6 54 82 0 c79 0
84 2 178 52 53 29 135 77 182 107 l86 56 0 100 0 100 148 0 147 0 -3 -106z
m513 -1378 c19 -8 44 -30 55 -48 39 -64 43 -63 -190 -60 l-210 3 0 -171 0
-170 211 0 211 0 -6 -27 c-4 -16 -22 -43 -41 -60 l-35 -33 -186 0 c-276 0
-274 -2 -274 292 0 283 4 287 268 288 120 0 172 -4 197 -14z"/>
<path d="M870 775 l0 -295 230 0 230 0 0 295 0 295 -230 0 -230 0 0 -295z
m430 0 l0 -265 -195 0 c-194 0 -195 0 -199 23 -4 19 -2 498 3 505 0 1 89 2
196 2 l195 0 0 -265z"/>
</g>
</svg>
