<?xml version="1.0" standalone="no"?>
<!DOCTYPE svg PUBLIC "-//W3C//DTD SVG 20010904//EN"
 "http://www.w3.org/TR/2001/REC-SVG-20010904/DTD/svg10.dtd">
<svg version="1.0" xmlns="http://www.w3.org/2000/svg"
 width="55.000000pt" height="72.000000pt" viewBox="0 0 55.000000 72.000000"
 preserveAspectRatio="xMidYMid meet">

<g transform="translate(0.000000,72.000000) scale(0.100000,-0.100000)"
fill="#000000" stroke="none">
<path d="M0 360 l0 -360 275 0 275 0 0 360 0 360 -275 0 -275 0 0 -360z m517
318 l23 -21 0 -296 0 -295 -27 -28 -27 -28 -206 0 -206 0 -27 28 -27 28 0 294
c0 288 0 294 22 317 21 23 25 23 237 23 207 0 216 -1 238 -22z"/>
<path d="M71 656 c-8 -9 -11 -99 -9 -307 l3 -294 215 0 215 0 3 294 c2 208 -1
298 -9 307 -9 11 -54 14 -209 14 -155 0 -200 -3 -209 -14z m259 -34 c0 -38 38
-72 89 -79 31 -4 41 -10 41 -24 0 -24 -51 -26 -94 -4 -36 19 -36 19 -36 -5 0
-26 55 -60 98 -60 25 0 32 -4 32 -20 0 -16 -7 -20 -35 -20 -20 0 -49 7 -65 15
-26 13 -30 14 -30 1 0 -23 55 -56 94 -56 29 0 36 -4 36 -20 0 -16 -7 -20 -35
-20 -20 0 -49 7 -65 15 l-30 16 0 -131 0 -130 70 0 c63 0 70 -2 70 -20 0 -18
-7 -20 -84 -20 -57 0 -87 4 -95 13 -7 9 -12 105 -14 283 l-2 269 -3 -271 c-2
-219 -5 -274 -16 -283 -9 -7 -42 -11 -88 -9 l-73 3 -3 84 c-3 99 5 110 86 111
l52 0 0 50 0 50 -37 -20 c-39 -21 -60 -24 -87 -14 -31 12 -16 32 28 38 51 8
96 39 96 67 0 18 -1 18 -32 -1 -44 -27 -108 -27 -108 -1 0 14 10 19 46 24 49
5 94 38 94 69 0 17 -2 16 -39 -3 -45 -23 -94 -22 -99 2 -2 13 8 18 42 23 59 9
96 39 96 77 0 28 1 29 50 29 48 0 50 -1 50 -28z m140 -392 c0 -17 -7 -20 -40
-20 -38 0 -40 -2 -40 -30 0 -28 2 -30 40 -30 34 0 40 -3 40 -20 0 -19 -5 -21
-62 -18 l-63 3 -3 54 c-5 78 -2 81 68 81 53 0 60 -2 60 -20z"/>
<path d="M130 160 l0 -60 50 0 50 0 0 60 0 60 -50 0 -50 0 0 -60z"/>
</g>
</svg>
